<?xml version="1.0" standalone="no"?>
<!DOCTYPE svg PUBLIC "-//W3C//DTD SVG 1.1//EN" "http://www.w3.org/Graphics/SVG/1.1/DTD/svg11.dtd" >
<svg xmlns="http://www.w3.org/2000/svg">
<metadata>Generated by IcoMoon</metadata>
<defs>
<font id="icomoon" horiz-adv-x="1024">
<font-face units-per-em="1024" ascent="960" descent="-64" />
<missing-glyph horiz-adv-x="1024" />
<glyph unicode="&#x20;" horiz-adv-x="512" d="" />
<glyph unicode="&#xe900;" glyph-name="bell" d="M912.836 238.375c-64.508 54.531-101.5 134.234-101.5 218.672v118.953c0 150.141-111.531 274.43-256 295.25v46.086c0 23.594-19.117 42.664-42.672 42.664-23.547 0-42.664-19.070-42.664-42.664v-46.086c-144.516-20.82-256-145.109-256-295.25v-118.953c0-84.438-36.992-164.141-101.891-219.008-16.594-14.211-26.109-34.859-26.109-56.703 0-41.18 33.492-74.672 74.664-74.672h704c41.18 0 74.672 33.492 74.672 74.672 0 21.844-9.516 42.492-26.5 57.039zM512.664-64c77.273 0 141.914 55.086 156.758 128h-313.516c14.852-72.914 79.492-128 156.758-128z" />
<glyph unicode="&#xe901;" glyph-name="bookmark-solid" horiz-adv-x="768" d="M0-64v928c0 53.020 42.98 96 96 96h576c53.020 0 96-42.98 96-96v-928l-384 224-384-224z" />
<glyph unicode="&#xe902;" glyph-name="book-open-solid" horiz-adv-x="1152" d="M1084.44 895.9c-109.6-6.22-327.44-28.86-461.92-111.18-9.28-5.68-14.54-15.78-14.54-26.34v-727.74c0-23.1 25.26-37.7 46.56-26.98 138.36 69.64 338.46 88.64 437.4 93.84 33.78 1.78 60.040 28.86 60.040 61.32v675.68c0.020 35.42-30.7 63.48-67.54 61.4zM529.46 784.72c-134.46 82.32-352.3 104.94-461.9 111.18-36.84 2.080-67.56-25.98-67.56-61.4v-675.7c0-32.48 26.26-59.56 60.040-61.32 98.98-5.2 299.18-24.22 437.54-93.9 21.24-10.7 46.42 3.88 46.42 26.92v728.24c0 10.58-5.24 20.28-14.54 25.98z" />
<glyph unicode="&#xe903;" glyph-name="camera" d="M725.334 405.334c0-117.821-95.513-213.334-213.334-213.334s-213.334 95.513-213.334 213.334c0 117.821 95.513 213.334 213.334 213.334s213.334-95.513 213.334-213.334zM938.666 746.666h-135.312c-17.104 0-33.166 6.666-45.27 18.75l-78 78c-20.146 20.146-46.938 31.25-75.438 31.25h-185.292c-28.5 0-55.292-11.104-75.438-31.25l-78-78c-12.104-12.084-28.166-18.75-45.27-18.75h-135.312c-47.064 0-85.334-38.27-85.334-85.332v-554.666c0-47.062 38.27-85.334 85.334-85.334h853.334c47.062 0 85.334 38.27 85.334 85.334v554.666c-0.002 47.062-38.272 85.332-85.336 85.332zM512 149.334c-141.166 0-256 114.834-256 256s114.834 256 256 256 256-114.834 256-256-114.834-256-256-256zM853.334 533.334c-23.52 0-42.666 19.146-42.666 42.666s19.146 42.666 42.666 42.666 42.666-19.146 42.666-42.666-19.146-42.666-42.666-42.666z" />
<glyph unicode="&#xe904;" glyph-name="cancel" d="M514 960c-281.22 0-514-228.78-514-510s232.78-514 514-514 510 232.78 510 514-228.78 510-510 510zM766.44 282.42c23.4-23.4 23.4-61.46 0-84.88-23.22-23.2-61.28-23.58-84.88 0l-167.56 167.62-171.58-167.64c-23.4-23.4-61.46-23.4-84.88 0-23.4 23.4-23.4 61.46 0 84.88l167.6 167.6-167.6 167.6c-23.4 23.42-23.4 61.48 0 84.88 23.42 23.4 61.48 23.4 84.88 0l171.58-167.64 167.56 167.64c23.36 23.36 61.42 23.44 84.88 0 23.4-23.4 23.4-61.46 0-84.88l-167.6-167.6 167.6-167.58z" />
<glyph unicode="&#xe905;" glyph-name="check-mark" d="M738.328 610.461c15.625-15.625 15.625-40.953 0-56.57l-268.344-268.352c-15.625-15.617-40.945-15.617-56.57 0l-127.742 127.75c-15.625 15.617-15.625 40.945 0 56.563 15.617 15.625 40.945 15.625 56.563 0l99.461-99.461 240.063 240.070c15.625 15.617 40.953 15.617 56.57 0zM1024 448c0-283.008-229.031-512-512-512-283.008 0-512 229.031-512 512 0 283.008 229.031 512 512 512 283.008 0 512-229.031 512-512zM944 448c0 238.789-193.242 432-432 432-238.789 0-432-193.242-432-432 0-238.789 193.242-432 432-432 238.789 0 432 193.242 432 432z" />
<glyph unicode="&#xe906;" glyph-name="clipboard-list-solid" horiz-adv-x="768" d="M672 832h-160c0 70.6-57.4 128-128 128s-128-57.4-128-128h-160c-53 0-96-43-96-96v-704c0-53 43-96 96-96h576c53 0 96 43 96 96v704c0 53-43 96-96 96zM192 112c-26.6 0-48 21.4-48 48s21.4 48 48 48 48-21.4 48-48-21.4-48-48-48zM192 304c-26.6 0-48 21.4-48 48s21.4 48 48 48 48-21.4 48-48-21.4-48-48-48zM192 496c-26.6 0-48 21.4-48 48s21.4 48 48 48 48-21.4 48-48-21.4-48-48-48zM384 880c26.6 0 48-21.4 48-48s-21.4-48-48-48-48 21.4-48 48 21.4 48 48 48zM640 144c0-8.8-7.2-16-16-16h-288c-8.8 0-16 7.2-16 16v32c0 8.8 7.2 16 16 16h288c8.8 0 16-7.2 16-16v-32zM640 336c0-8.8-7.2-16-16-16h-288c-8.8 0-16 7.2-16 16v32c0 8.8 7.2 16 16 16h288c8.8 0 16-7.2 16-16v-32zM640 528c0-8.8-7.2-16-16-16h-288c-8.8 0-16 7.2-16 16v32c0 8.8 7.2 16 16 16h288c8.8 0 16-7.2 16-16v-32z" />
<glyph unicode="&#xe907;" glyph-name="cross" d="M512 960c-282.982 0-512-228.994-512-512 0-282.982 228.994-512 512-512 282.982 0 512 228.994 512 512 0 282.982-228.994 512-512 512zM831.612 128.386c-176.1-176.1-462.854-176.37-639.224 0.002-176.236 176.236-176.234 462.988 0 639.226 88.118 88.116 203.864 132.174 319.612 132.174 115.746 0 231.496-44.058 319.614-132.176 176.234-176.236 176.232-462.988-0.002-639.226zM796.048 612.048c0 66.32-53.672 120-120 120-32.052 0-62.188-12.482-84.854-35.148l-79.194-79.194-79.196 79.196c-22.666 22.666-52.8 35.148-84.854 35.148-66.32 0-120-53.672-120-120 0-32.052 12.482-62.188 35.148-84.854l79.196-79.196-79.196-79.196c-22.666-22.666-35.148-52.8-35.148-84.854 0-66.32 53.672-120 120-120 32.052 0 62.188 12.482 84.854 35.148l79.196 79.196 79.196-79.196c22.666-22.666 52.8-35.148 84.854-35.148 66.32 0 120 53.672 120 120 0 32.052-12.482 62.188-35.148 84.854l-79.196 79.196 79.196 79.196c22.664 22.666 35.146 52.8 35.146 84.852zM718.474 569.622l-100.408-100.408c-11.716-11.714-11.716-30.71 0-42.426l100.408-100.408c11.332-11.334 17.574-26.4 17.574-42.428 0-33.158-26.838-60-60-60-16.028 0-31.094 6.242-42.428 17.574l-100.408 100.408c-11.716 11.716-30.71 11.716-42.426 0l-100.408-100.408c-11.334-11.332-26.4-17.574-42.428-17.574-33.158 0-60 26.838-60 60 0 16.028 6.242 31.094 17.574 42.428l100.408 100.408c11.716 11.714 11.716 30.71 0 42.426l-100.408 100.408c-11.332 11.334-17.574 26.4-17.574 42.428 0 33.158 26.838 60 60 60 16.028 0 31.094-6.242 42.428-17.574l100.408-100.408c11.714-11.714 30.71-11.714 42.426 0l100.408 100.408c11.334 11.332 26.4 17.574 42.428 17.574 33.158 0 60-26.838 60-60 0-16.028-6.242-31.094-17.574-42.428z" />
<glyph unicode="&#xe908;" glyph-name="delete" d="M707.148 606.948l-80.156 2.94-17.378-474.568 80.156-2.928zM471.896 608.418h80.208v-474.57h-80.208v474.57zM414.372 135.332l-17.378 474.57-80.156-2.942 17.38-474.568zM34.758 806.266v-80.208h83.578l66.304-753.47c1.818-20.706 19.158-36.588 39.944-36.588h573.48c20.788 0 38.14 15.894 39.944 36.602l66.306 753.456h84.928v80.208h-954.484zM761.33 16.208h-500.022l-62.456 709.85h624.948l-62.47-709.85zM643.008 960h-262.016c-36.856 0-66.84-29.984-66.84-66.84v-126.998h80.208v113.63h235.28v-113.63h80.208v126.998c0 36.856-29.984 66.84-66.84 66.84z" />
<glyph unicode="&#xe909;" glyph-name="down-arrow-1" d="M957.772 392.34c-3.327 7.975-11.090 13.18-19.705 13.18h-233.692v533.154c0 11.772-9.555 21.327-21.327 21.327h-341.22c-11.772 0-21.327-9.555-21.327-21.327v-533.156h-234.588c-8.615 0-16.379-5.204-19.705-13.138-3.285-7.975-1.494-17.146 4.606-23.246l425.458-426.865c4.009-4.009 9.427-6.27 15.099-6.27s11.090 2.261 15.099 6.228l426.695 426.865c6.1 6.102 7.933 15.271 4.606 23.248z" />
<glyph unicode="&#xe90a;" glyph-name="down-arrow" d="M957.772 392.34c-3.327 7.975-11.090 13.18-19.705 13.18h-233.692v533.154c0 11.772-9.555 21.327-21.327 21.327h-341.22c-11.772 0-21.327-9.555-21.327-21.327v-533.156h-234.588c-8.615 0-16.379-5.204-19.705-13.138-3.285-7.975-1.494-17.146 4.606-23.246l425.458-426.865c4.009-4.009 9.427-6.27 15.099-6.27s11.090 2.261 15.099 6.228l426.695 426.865c6.1 6.102 7.933 15.271 4.606 23.248z" />
<glyph unicode="&#xe90b;" glyph-name="edit-solid" horiz-adv-x="1152" d="M805.2 793.6l180.4-180.4c7.6-7.6 7.6-20 0-27.6l-436.8-436.8-185.6-20.6c-24.8-2.8-45.8 18.2-43 43l20.6 185.6 436.8 436.8c7.6 7.6 20 7.6 27.6 0zM1129.2 839.4l-97.6 97.6c-30.4 30.4-79.8 30.4-110.4 0l-70.8-70.8c-7.6-7.6-7.6-20 0-27.6l180.4-180.4c7.6-7.6 20-7.6 27.6 0l70.8 70.8c30.4 30.6 30.4 80 0 110.4zM768 267.6v-203.6h-640v640h459.6c6.4 0 12.4 2.6 17 7l80 80c15.2 15.2 4.4 41-17 41h-571.6c-53 0-96-43-96-96v-704c0-53 43-96 96-96h704c53 0 96 43 96 96v315.6c0 21.4-25.8 32-41 17l-80-80c-4.4-4.6-7-10.6-7-17z" />
<glyph unicode="&#xe90c;" glyph-name="email" d="M678.784 442.752l345.216-218.24v445.696zM0 670.208v-445.696l345.216 218.24zM960 800h-896c-31.936 0-57.28-23.808-62.080-54.464l510.080-336.064 510.080 336.064c-4.8 30.656-30.144 54.464-62.080 54.464zM620.16 404.096l-90.56-59.648c-5.376-3.52-11.456-5.248-17.6-5.248s-12.224 1.728-17.6 5.248l-90.56 59.712-401.792-254.144c4.928-30.4 30.144-54.016 61.952-54.016h896c31.808 0 57.024 23.616 61.952 54.016l-401.792 254.080z" />
<glyph unicode="&#xe90d;" glyph-name="evidence" d="M638.031 235.32l299.323-0.003v472.622c0 43.503-35.267 78.769-78.769 78.769h-204.8v78.769c0 52.202-42.321 94.523-94.523 94.523h-94.523c-52.202 0-94.523-42.321-94.523-94.523v-78.769h-204.8c-43.503 0-78.769-35.267-78.769-78.769v-693.169c0-43.503 35.267-78.769 78.769-78.769h472.615v299.32zM559.262 676.431h-94.523v189.046h94.523v-189.046zM181.169 329.846h330.831v-94.523h-330.831v94.523zM842.831 424.369h-661.662v94.523h661.662v-94.523zM922.794 140.794h-190.24v-190.599c0 0 187.726 187.055 190.24 190.599z" />
<glyph unicode="&#xe90e;" glyph-name="exclamation-circle-solid" d="M1008 448c0-273.994-222.086-496-496-496s-496 222.006-496 496c0 273.834 222.086 496 496 496s496-222.166 496-496zM512 348c-50.81 0-92-41.19-92-92s41.19-92 92-92 92 41.19 92 92-41.19 92-92 92zM424.654 678.692l14.836-272c0.694-12.728 11.218-22.692 23.964-22.692h97.092c12.746 0 23.27 9.964 23.964 22.692l14.836 272c0.75 13.748-10.196 25.308-23.964 25.308h-126.766c-13.768 0-24.712-11.56-23.962-25.308z" />
<glyph unicode="&#xe90f;" glyph-name="eye" d="M512 753.2c-195.646 0-373.068-107.040-503.988-280.901-10.683-14.244-10.683-34.144 0-48.388 130.92-174.071 308.342-281.11 503.988-281.11s373.068 107.040 503.988 280.901c10.683 14.244 10.683 34.144 0 48.388-130.92 174.071-308.342 281.11-503.988 281.11zM526.035 233.083c-129.872-8.169-237.121 98.87-228.952 228.952 6.703 107.249 93.634 194.18 200.883 200.883 129.872 8.169 237.121-98.87 228.952-228.952-6.913-107.040-93.843-193.97-200.883-200.883zM519.541 332.372c-69.963-4.399-127.777 53.206-123.169 123.169 3.561 57.814 50.483 104.526 108.297 108.297 69.963 4.399 127.777-53.206 123.169-123.169-3.77-58.024-50.692-104.736-108.297-108.297z" />
<glyph unicode="&#xe910;" glyph-name="eye-slash-solid" horiz-adv-x="1280" d="M640 160c-151.7 0-274.5 117.42-285.8 266.22l-209.8 162.14c-27.58-34.6-52.96-71.18-73.44-111.18-4.387-8.495-6.959-18.542-6.959-29.19s2.572-20.695 7.129-29.553l-0.17 0.363c108.46-211.62 323.18-354.8 569.040-354.8 53.82 0 105.74 8 155.78 20.92l-103.78 80.3c-15.55-3.151-33.498-5.043-51.857-5.219l-0.143-0.001zM1267.64 43.8l-221.1 170.88c66.318 56.14 120.801 123.919 160.761 200.48l1.739 3.66c4.387 8.495 6.959 18.542 6.959 29.19s-2.572 20.695-7.129 29.553l0.17-0.363c-108.46 211.62-323.18 354.8-569.040 354.8-108.057-0.135-209.564-28.059-297.794-77.006l3.154 1.606-254.44 196.66c-5.365 4.206-12.212 6.745-19.652 6.745-10.241 0-19.358-4.81-25.215-12.295l-0.053-0.070-39.26-50.54c-4.2-5.363-6.736-12.205-6.736-19.639 0-10.236 4.806-19.35 12.286-25.208l0.070-0.053 1176.72-909.46c5.365-4.206 12.212-6.745 19.652-6.745 10.241 0 19.358 4.81 25.215 12.295l0.053 0.070 39.28 50.54c4.196 5.361 6.728 12.2 6.728 19.63 0 10.242-4.812 19.36-12.298 25.217l-0.070 0.053zM900.2 327.8l-78.6 60.76c6.321 17.675 10.107 38.068 10.399 59.306l0.001 0.134c0.010 0.742 0.016 1.618 0.016 2.496 0 104.669-84.851 189.52-189.52 189.52-18.929 0-37.21-2.775-54.458-7.941l1.342 0.345c11.598-15.572 18.581-35.176 18.62-56.411v-0.009c-0.328-7.253-1.432-14.098-3.233-20.655l0.153 0.655-147.22 113.78c48.981 41.15 112.714 66.167 182.289 66.22h0.011c0.047 0 0.104 0 0.16 0 158.97 0 287.84-128.87 287.84-287.84 0-0.056 0-0.112 0-0.168v0.008c0-43.26-10.58-83.58-27.8-120.22z" />
<glyph unicode="&#xe911;" glyph-name="facebook" d="M896 960h-768c-70.592 0-128-57.408-128-128v-768c0-70.592 57.408-128 128-128h384v352h-128v160h128v128c0 106.048 85.952 192 192 192h128v-160h-64c-35.328 0-64 3.328-64-32v-128h160l-64-160h-96v-352h192c70.592 0 128 57.408 128 128v768c0 70.592-57.408 128-128 128z" />
<glyph unicode="&#xe912;" glyph-name="file-alt-solid" horiz-adv-x="768" d="M448 688v272h-400c-26.6 0-48-21.4-48-48v-928c0-26.6 21.4-48 48-48h672c26.6 0 48 21.4 48 48v656h-272c-26.4 0-48 21.6-48 48zM576 216c0-13.2-10.8-24-24-24h-336c-13.2 0-24 10.8-24 24v16c0 13.2 10.8 24 24 24h336c13.2 0 24-10.8 24-24v-16zM576 344c0-13.2-10.8-24-24-24h-336c-13.2 0-24 10.8-24 24v16c0 13.2 10.8 24 24 24h336c13.2 0 24-10.8 24-24v-16zM576 488v-16c0-13.2-10.8-24-24-24h-336c-13.2 0-24 10.8-24 24v16c0 13.2 10.8 24 24 24h336c13.2 0 24-10.8 24-24zM768 716.2v-12.2h-256v256h12.2c12.8 0 25-5 34-14l195.8-196c9-9 14-21.2 14-33.8z" />
<glyph unicode="&#xe913;" glyph-name="global" d="M530.302-63.393c78.305 11.125 146.951 92.853 190.147 213.55-62.444 13.985-126.166 21.491-190.147 22.384zM655.404-44.199c4.629 1.34 9.24 2.69 13.815 4.173 3.86 1.242 7.667 2.582 11.474 3.914 4.504 1.555 8.99 3.154 13.457 4.852 3.807 1.448 7.578 2.985 11.358 4.522 4.361 1.832 8.713 3.655 13.020 5.487 3.762 1.653 7.497 3.387 11.232 5.129 4.227 1.993 8.436 4.021 12.609 6.13 3.664 1.868 7.319 3.771 10.982 5.728 4.102 2.198 8.176 4.441 12.224 6.747 3.664 2.073 7.193 4.155 10.759 6.3 3.968 2.44 7.917 4.879 11.84 7.319 3.512 2.234 7.015 4.504 10.473 6.845 3.86 2.6 7.667 5.308 11.456 8.016 3.405 2.44 6.791 4.87 10.115 7.319 3.664 2.824 7.417 5.746 11.089 8.677 3.262 2.6 6.514 5.183 9.722 7.855 3.655 3.038 7.158 6.184 10.705 9.329 3.11 2.761 6.237 5.496 9.275 8.328 3.494 3.262 6.899 6.639 10.303 9.99 2.949 2.913 5.933 5.782 8.82 8.766 0.536 0.554 1.046 1.153 1.6 1.725-39.917 20.615-81.96 36.798-125.398 48.254-22.59-72.041-62.793-137.327-116.962-189.924 1.483 0.384 2.967 0.697 4.45 1.081 3.914 1.099 7.756 2.305 11.581 3.44zM1024.002 429.279h-219.43c-0.831-85.678-13.261-170.846-36.95-253.19 48.308-12.903 94.926-31.454 138.891-55.269 72.184 87 113.504 195.473 117.489 308.459zM530.302 465.881h237.668c-0.929 82.648-13.055 164.787-36.030 244.183-66.179-15.093-133.771-23.153-201.639-24.047zM530.302 958.553v-235.935c63.981 0.903 127.703 8.4 190.147 22.384-43.196 120.697-111.842 202.425-190.147 213.55zM530.302 209.143c67.868-0.903 135.459-8.963 201.639-24.055 22.974 79.396 35.1 161.543 36.030 244.192h-237.668zM906.512 774.339c-43.965-23.814-90.583-42.365-138.891-55.269 23.689-82.344 36.119-167.513 36.95-253.19h219.43c-3.994 112.977-45.314 221.45-117.489 308.459zM881.787 802.103c-0.536 0.545-1.046 1.135-1.573 1.698-2.895 2.985-5.898 5.862-8.847 8.766-3.396 3.351-6.782 6.738-10.285 9.99-3.029 2.824-6.166 5.496-9.275 8.31-3.548 3.145-7.095 6.318-10.741 9.356-3.163 2.672-6.407 5.228-9.624 7.792-3.664 2.967-7.417 5.916-11.188 8.748-3.306 2.493-6.657 4.906-10.026 7.319-3.825 2.752-7.667 5.496-11.563 8.114-3.422 2.305-6.899 4.557-10.375 6.764-3.959 2.547-7.908 5.040-11.938 7.453-3.53 2.118-7.095 4.209-10.669 6.237-4.093 2.341-8.194 4.611-12.332 6.827-3.664 1.832-7.319 3.825-10.982 5.656-4.209 2.127-8.453 4.173-12.805 6.184-3.664 1.743-7.381 3.44-11.152 5.093-4.334 1.921-8.713 3.655-13.082 5.487-3.771 1.537-7.524 3.056-11.331 4.504-4.441 1.698-8.945 3.288-13.449 4.843-3.807 1.34-7.613 2.672-11.474 3.923-4.575 1.483-9.15 2.833-13.851 4.191-3.807 1.117-7.631 2.252-11.483 3.271-1.474 0.402-2.976 0.715-4.459 1.099 54.169-52.597 94.363-117.874 116.962-189.924 43.482 11.456 85.588 27.648 125.541 48.299zM0 465.881h219.43c0.831 85.678 13.261 170.846 36.941 253.19-48.299 12.895-94.917 31.445-138.882 55.269-72.184-87-113.504-195.482-117.489-308.459zM493.7-63.393v235.935c-63.981-0.903-127.703-8.4-190.147-22.384 43.187-120.697 111.842-202.425 190.147-213.55zM493.7 429.279h-237.668c0.929-82.648 13.046-164.796 36.030-244.192 66.179 15.102 133.762 23.162 201.639 24.055zM493.7 958.553c-78.305-11.125-146.96-92.853-190.147-213.55 62.444-13.994 126.166-21.491 190.147-22.384zM493.7 686.017c-67.868 0.894-135.459 8.954-201.639 24.047-22.983-79.396-35.1-161.534-36.030-244.183h237.668zM384.575 943.747c-1.483-0.384-2.967-0.697-4.45-1.081-3.878-1.037-7.703-2.189-11.563-3.306-4.593-1.34-9.15-2.69-13.761-4.155-3.887-1.26-7.712-2.6-11.536-3.932-4.477-1.582-8.963-3.154-13.395-4.834-3.825-1.465-7.596-2.985-11.384-4.539-4.352-1.832-8.713-3.664-13.011-5.487-3.771-1.653-7.497-3.387-11.232-5.129-4.227-1.993-8.436-4.021-12.609-6.13-3.664-1.868-7.327-3.78-10.982-5.728-4.102-2.198-8.167-4.45-12.206-6.756-3.664-2.046-7.265-4.146-10.795-6.291-3.976-2.395-7.908-4.87-11.822-7.319-3.521-2.252-7.015-4.522-10.473-6.863-3.86-2.6-7.667-5.308-11.456-8.016-3.405-2.44-6.791-4.87-10.124-7.327-3.744-2.815-7.319-5.746-11.089-8.668-3.253-2.6-6.532-5.183-9.713-7.873-3.664-3.020-7.14-6.148-10.669-9.275-3.128-2.788-6.282-5.496-9.338-8.382-3.476-3.244-6.863-6.613-10.258-9.955-2.949-2.913-5.951-5.79-8.847-8.784-0.527-0.554-1.037-1.162-1.591-1.725 39.908-20.624 81.96-36.807 125.398-48.263 22.59 72.006 62.766 137.247 116.909 189.817zM152.625 82.593c3.405-3.351 6.791-6.738 10.285-9.999 3.038-2.815 6.166-5.487 9.284-8.301 3.548-3.154 7.095-6.318 10.741-9.356 3.163-2.654 6.389-5.219 9.624-7.792 3.664-2.967 7.319-5.916 11.197-8.766 3.297-2.475 6.648-4.87 9.999-7.327 3.825-2.743 7.685-5.487 11.581-8.123 3.422-2.305 6.899-4.557 10.375-6.773 3.959-2.538 7.908-5.031 11.938-7.444 3.53-2.127 7.095-4.209 10.669-6.246 4.093-2.341 8.194-4.611 12.332-6.818 3.655-1.832 7.319-3.825 10.982-5.656 4.209-2.127 8.453-4.173 12.805-6.193 3.664-1.725 7.381-3.422 11.152-5.085 4.334-1.921 8.704-3.655 13.082-5.487 3.771-1.537 7.524-3.056 11.331-4.504 4.441-1.707 8.945-3.297 13.449-4.852 3.807-1.331 7.613-2.672 11.474-3.914 4.575-1.483 9.15-2.842 13.851-4.191 3.807-1.117 7.631-2.252 11.474-3.279 1.483-0.402 2.985-0.715 4.468-1.099-54.169 52.606-94.363 117.883-116.962 189.933-43.437-11.465-85.49-27.648-125.398-48.281 0.536-0.545 1.046-1.135 1.582-1.698 2.743-2.967 5.701-5.844 8.686-8.748zM117.489 120.821c43.965 23.814 90.583 42.365 138.882 55.269-23.68 82.344-36.11 167.513-36.941 253.19h-219.43c3.994-112.977 45.305-221.45 117.489-308.459z" />
<glyph unicode="&#xe914;" glyph-name="heart-shape-silhouette" d="M951.425 815.993c-48.385 47.246-115.234 70.86-200.576 70.86-23.617 0-47.721-4.095-72.287-12.281-24.576-8.192-47.439-19.244-68.562-33.148-21.151-13.9-39.329-26.954-54.578-39.141-15.231-12.191-29.712-25.146-43.424-38.856-13.718 13.71-28.195 26.665-43.428 38.856-15.243 12.187-33.428 25.232-54.576 39.141-21.143 13.91-44.002 24.954-68.572 33.148-24.568 8.184-48.667 12.281-72.285 12.281-85.336 0-152.189-23.619-200.568-70.86-48.379-47.236-72.571-112.756-72.571-196.565 0-25.525 4.483-51.816 13.432-78.853 8.949-27.048 19.146-50.098 30.572-69.142 11.424-19.042 24.38-37.619 38.856-55.715 14.477-18.097 25.056-30.562 31.715-37.425 6.665-6.849 11.905-11.807 15.713-14.849l356.566-344.003c6.859-6.863 15.239-10.296 25.142-10.296s18.289 3.433 25.144 10.281l355.999 342.864c87.24 87.23 130.855 172.946 130.855 257.137 0.002 83.809-24.194 149.329-72.571 196.565z" />
<glyph unicode="&#xe915;" glyph-name="home-1" d="M996.391 514.609c-0.023 0.023-0.047 0.047-0.070 0.070l-417.711 417.695c-17.805 17.813-41.477 27.625-66.656 27.625s-48.852-9.805-66.664-27.617l-417.492-417.484c-0.141-0.141-0.281-0.289-0.422-0.43-36.563-36.773-36.5-96.438 0.18-133.117 16.758-16.766 38.891-26.477 62.555-27.492 0.961-0.094 1.93-0.141 2.906-0.141h16.648v-307.398c0-60.828 49.492-110.32 110.336-110.32h163.422c16.563 0 30 13.43 30 30v241c0 27.758 22.578 50.336 50.336 50.336h96.391c27.758 0 50.336-22.578 50.336-50.336v-241c0-16.57 13.43-30 30-30h163.422c60.844 0 110.336 49.492 110.336 110.32v307.398h15.438c25.172 0 48.844 9.805 66.664 27.617 36.719 36.742 36.734 96.508 0.047 133.273z" />
<glyph unicode="&#xe916;" glyph-name="home" d="M821.337-64.002h-170.661c-17.664 0-31.999 14.336-31.999 31.999v277.33c0 5.891-4.781 10.664-10.672 10.664h-191.996c-5.883 0-10.664-4.773-10.664-10.664v-277.33c0-17.664-14.336-31.999-31.999-31.999h-170.661c-41.171 0-74.67 33.491-74.67 74.67v394.656h-74.663c-29.398 0-53.335 23.937-53.335 53.335 0 14.117 5.766 27.945 15.789 37.968l474.060 454.475c12.375 11.867 31.913 11.867 44.288 0l473.592-453.959c10.492-10.539 16.25-24.367 16.25-38.484 0-29.398-23.929-53.335-53.327-53.335h-74.67v-394.656c0-41.179-33.491-74.67-74.663-74.67zM682.676-0.003h138.661c5.805 0 10.664 4.867 10.664 10.672v426.655c0 17.664 14.336 31.999 31.999 31.999h80.256l-432.249 414.327-432.241-414.327h80.248c17.664 0 31.999-14.336 31.999-31.999v-426.655c0-5.805 4.867-10.672 10.672-10.672h138.661v245.331c0 41.171 33.491 74.663 74.663 74.663h191.996c41.179 0 74.67-33.491 74.67-74.663z" />
<glyph unicode="&#xe917;" glyph-name="info" d="M724.675 46.507l-14.308-58.488c-42.923-16.942-77.21-29.836-102.742-38.702-25.559-8.893-55.258-13.317-89.095-13.317-51.963 0-92.381 12.729-121.207 38.013-28.827 25.385-43.244 57.552-43.244 96.575 0 15.106 1.046 30.644 3.221 46.475 2.193 15.85 5.681 33.7 10.453 53.652l53.643 189.865c4.772 18.181 8.829 35.407 12.078 51.697 3.295 16.189 4.882 31.084 4.882 44.493 0 24.247-5.020 41.207-15.014 50.743-9.994 9.508-29.065 14.335-57.378 14.335-13.867 0-28.12-2.221-42.648-6.516-14.592-4.313-27.065-8.48-37.536-12.353l14.344 58.534c35.141 14.308 68.73 26.56 100.861 36.728 32.13 10.196 62.49 15.299 91.206 15.299 51.605 0 91.426-12.472 119.39-37.417 27.964-24.963 41.941-57.323 41.941-97.199 0-8.251-0.918-22.788-2.891-43.566-1.927-20.824-5.516-39.904-10.747-57.259l-53.413-189.103c-4.378-15.189-8.315-32.553-11.738-52.092-3.533-19.41-5.222-34.241-5.222-44.19 0-25.11 5.598-42.253 16.822-51.367 11.307-9.113 30.781-13.647 58.442-13.647 12.986 0 27.762 2.304 44.181 6.828 16.373 4.525 28.313 8.498 35.719 11.977zM738.221 840.417c0-32.947-12.417-61.086-37.371-84.222-24.889-23.219-54.882-34.838-89.967-34.838-35.196 0-65.261 11.619-90.435 34.838-25.128 23.146-37.72 51.275-37.72 84.222 0 32.883 12.592 61.067 37.72 84.497 25.128 23.393 55.249 35.086 90.435 35.086 35.076 0 65.078-11.72 89.967-35.086 24.972-23.43 37.371-51.624 37.371-84.497z" />
<glyph unicode="&#xe918;" glyph-name="info-button" d="M512 960c-282.741 0-512-229.237-512-511.978 0-282.763 229.259-512.022 512-512.022s512 229.259 512 512.022c0 282.741-229.237 511.978-512 511.978zM590.267 168.455c0-42.933-35.155-77.731-78.044-77.731-42.911 0-78.044 34.798-78.044 77.731v340.067c0 42.911 35.133 77.708 78.044 77.708 42.888 0 78.044-34.776 78.044-77.708v-340.067zM512 650.44c-47.358 0-85.754 38.396-85.754 85.732 0 47.381 38.396 85.732 85.754 85.732 47.336 0 85.754-38.351 85.754-85.732 0-47.336-38.418-85.732-85.754-85.732z" />
<glyph unicode="&#xe919;" glyph-name="infographic-1" d="M128 490.667c-11.733 0-23.467 4.821-31.872 14.293-15.659 17.621-14.080 44.587 3.541 60.245l192 170.667c9.131 8.149 21.333 11.947 33.451 10.453l332.075-40.235 188.117 178.219c17.109 16.128 44.16 15.488 60.288-1.664 16.213-17.109 15.488-44.117-1.621-60.331l-202.667-192c-9.216-8.747-21.931-12.885-34.475-11.392l-332.885 40.405-177.621-157.909c-8.107-7.211-18.261-10.752-28.331-10.752zM906.667 704c-8.32 0-16.512 3.243-22.613 9.387l-149.333 149.333c-9.173 9.131-11.861 22.912-6.955 34.859 4.949 11.947 16.597 19.755 29.568 19.755h149.333c17.664 0 32-14.336 32-32v-149.333c0-12.928-7.808-24.619-19.755-29.568-3.968-1.621-8.107-2.432-12.245-2.432zM298.667 181.333v-117.333h-256v117.333c0 29.44 23.893 53.333 53.333 53.333h149.333c29.44 0 53.333-23.893 53.333-53.333zM640 437.333v-373.333h-256v373.333c0 29.44 23.893 53.333 53.333 53.333h149.333c29.44 0 53.333-23.893 53.333-53.333zM981.333 352v-288h-256v288c0 29.44 23.893 53.333 53.333 53.333h149.333c29.44 0 53.333-23.893 53.333-53.333zM992-64h-960c-17.664 0-32 14.336-32 32s14.336 32 32 32h960c17.664 0 32-14.336 32-32s-14.336-32-32-32z" />
<glyph unicode="&#xe91a;" glyph-name="infographic-2" d="M128 490.667c-11.733 0-23.467 4.821-31.872 14.293-15.659 17.621-14.080 44.587 3.541 60.245l192 170.667c9.131 8.149 21.333 11.947 33.451 10.453l332.075-40.235 188.117 178.219c17.109 16.128 44.16 15.488 60.288-1.664 16.213-17.109 15.488-44.117-1.621-60.331l-202.667-192c-9.216-8.747-21.931-12.885-34.475-11.392l-332.885 40.405-177.621-157.909c-8.107-7.211-18.261-10.752-28.331-10.752zM906.667 704c-8.32 0-16.512 3.243-22.613 9.387l-149.333 149.333c-9.173 9.131-11.861 22.912-6.955 34.859 4.949 11.947 16.597 19.755 29.568 19.755h149.333c17.664 0 32-14.336 32-32v-149.333c0-12.928-7.808-24.619-19.755-29.568-3.968-1.621-8.107-2.432-12.245-2.432zM298.667 181.333v-117.333h-256v117.333c0 29.44 23.893 53.333 53.333 53.333h149.333c29.44 0 53.333-23.893 53.333-53.333zM640 437.333v-373.333h-256v373.333c0 29.44 23.893 53.333 53.333 53.333h149.333c29.44 0 53.333-23.893 53.333-53.333zM981.333 352v-288h-256v288c0 29.44 23.893 53.333 53.333 53.333h149.333c29.44 0 53.333-23.893 53.333-53.333zM992-64h-960c-17.664 0-32 14.336-32 32s14.336 32 32 32h960c17.664 0 32-14.336 32-32s-14.336-32-32-32z" />
<glyph unicode="&#xe91b;" d="M95.12 600.696h773.112c6.936 0 13.528 3 18.096 8.224l94.64 108.56c5.224 6 5.224 15.032 0 21.032l-94.64 108.56c-4.56 5.224-11.16 8.224-18.096 8.224h-773.112c-13.232 0-24-10.768-24-24v-206.608c0-13.224 10.768-23.992 24-23.992z" />
<glyph unicode="&#xe91c;" d="M886.32 551.080c-4.56 5.224-11.16 8.224-18.096 8.224h-773.104c-13.232 0-24-10.768-24-24v-206.608c0-13.232 10.768-24 24-24h773.112c6.936 0 13.528 3 18.096 8.224l94.64 108.56c5.224 6 5.224 15.032 0 21.032z" />
<glyph unicode="&#xe91d;" d="M886.32 255.080c-4.56 5.224-11.16 8.224-18.096 8.224h-773.104c-13.232 0-24-10.768-24-24v-206.608c0-13.232 10.768-24 24-24h773.112c6.936 0 13.528 3 18.096 8.224l94.64 108.56c5.224 6 5.224 15.032 0 21.032z" />
<glyph unicode="&#xe91e;" d="M836.232 640.696h-773.112c-8.84 0-16 7.16-16 16v206.608c0 8.84 7.16 16 16 16h773.112c4.624 0 9.024-2 12.064-5.488l94.632-108.56c2.624-3.016 2.624-7.504 0-10.512l-94.632-108.56c-3.040-3.488-7.44-5.488-12.064-5.488z" />
<glyph unicode="&#xe91f;" d="M942.928 765.256l-94.632 108.56c-3.040 3.488-7.44 5.488-12.064 5.488h-24c4.624 0 9.024-2 12.064-5.488l94.632-108.56c2.624-3.016 2.624-7.504 0-10.512l-94.632-108.56c-3.040-3.488-7.44-5.488-12.064-5.488h24c4.624 0 9.024 2 12.064 5.488l94.632 108.56c2.624 3.008 2.624 7.496 0 10.512z" />
<glyph unicode="&#xe920;" d="M271.12 879.304h-208c-8.84 0-16-7.16-16-16v-206.616c0-8.84 7.16-16 16-16h208z" />
<glyph unicode="&#xe921;" d="M205.728 709.92c0-7.056-4.088-10.584-12.264-10.584h-57.456c-8.288 0-12.432 3.528-12.432 10.584 0 6.944 4.144 10.416 12.432 10.416h15.624v68.704l-14.784-8.904c-1.68-1.008-3.36-1.512-5.040-1.512-2.8 0-5.176 1.176-7.144 3.528s-2.936 4.984-2.936 7.896c0 3.92 1.736 6.888 5.208 8.904l26.544 15.96c3.92 2.352 7.84 3.528 11.76 3.528 3.696 0 6.72-1.152 9.072-3.448s3.528-5.408 3.528-9.328v-85.344h15.624c8.176 0.008 12.264-3.464 12.264-10.4z" />
<glyph unicode="&#xe922;" d="M836.232 344.696h-773.112c-8.84 0-16 7.16-16 16v206.608c0 8.84 7.16 16 16 16h773.112c4.624 0 9.024-2 12.064-5.488l94.632-108.56c2.624-3.016 2.624-7.504 0-10.512l-94.632-108.56c-3.040-3.488-7.44-5.488-12.064-5.488z" />
<glyph unicode="&#xe923;" d="M271.12 583.304h-208c-8.84 0-16-7.16-16-16v-206.616c0-8.84 7.16-16 16-16h208z" />
<glyph unicode="&#xe924;" d="M203.544 413.92c0-7.056-4.152-10.584-12.432-10.584h-62.496c-3.472 0-6.248 1.032-8.32 3.112-2.072 2.072-3.112 4.672-3.112 7.816 0 4.032 1.624 7.728 4.872 11.088l36.96 39.144c8.288 8.736 12.432 16.8 12.432 24.192 0 4.592-1.288 8.088-3.864 10.496s-6.328 3.616-11.256 3.616c-4.256 0-8.176-0.728-11.76-2.184s-7.728-3.584-12.432-6.384c-1.904-1.12-3.36-1.904-4.368-2.352s-2.184-0.672-3.528-0.672c-2.352 0-4.368 1.096-6.048 3.28s-2.52 4.728-2.52 7.648c0 2.128 0.36 3.888 1.096 5.288 0.728 1.4 1.928 2.664 3.616 3.784 5.040 3.696 10.832 6.64 17.384 8.824s13.128 3.28 19.736 3.28c7.952 0 14.928-1.344 20.92-4.032s10.608-6.528 13.856-11.512 4.872-10.72 4.872-17.216c0-6.832-1.424-13.16-4.28-18.984s-7.648-12.32-14.368-19.488l-26.376-27.72h38.976c8.288-0.032 12.44-3.504 12.44-10.44z" />
<glyph unicode="&#xe925;" d="M836.232 48.696h-773.112c-8.84 0-16 7.16-16 16v206.608c0 8.84 7.16 16 16 16h773.112c4.624 0 9.024-2 12.064-5.488l94.632-108.56c2.624-3.016 2.624-7.504 0-10.512l-94.632-108.56c-3.040-3.488-7.44-5.488-12.064-5.488z" />
<glyph unicode="&#xe926;" d="M271.12 287.304h-208c-8.84 0-16-7.16-16-16v-206.616c0-8.84 7.16-16 16-16h208z" />
<glyph unicode="&#xe927;" d="M420.12 648.688c-4.416 0-8-3.584-8-8s3.584-8 8-8h75.888c4.416 0 8 3.584 8 8s-3.584 8-8 8z" />
<glyph unicode="&#xe928;" d="M63.12 632.688h325c4.416 0 8 3.584 8 8s-3.584 8-8 8h-109v222.616h557.12c2.312 0 4.504-1 6.024-2.744l94.632-108.56-94.64-108.568c-1.52-1.744-3.712-2.744-6.024-2.744h-306.112c-4.424 0-8-3.584-8-8s3.576-8 8-8h306.12c6.936 0 13.528 3 18.088 8.232l94.64 108.56c5.224 6 5.224 15.032 0 21.024l-94.64 108.568c-4.56 5.224-11.16 8.224-18.088 8.224h-773.12c-13.232 0-24-10.768-24-24v-206.616c0-13.224 10.76-23.992 24-23.992zM55.12 863.304c0 4.408 3.592 8 8 8h200v-222.616h-200c-4.408 0-8 3.592-8 8z" />
<glyph unicode="&#xe929;" d="M854.32 583.080c-4.56 5.224-11.16 8.224-18.088 8.224h-773.112c-13.232 0-24-10.768-24-24v-206.616c0-13.232 10.768-24 24-24h773.12c6.936 0 13.528 3 18.088 8.232l94.64 108.56c5.224 6 5.224 15.032 0 21.024zM55.12 360.688v206.616c0 4.408 3.592 8 8 8h200v-222.616h-200c-4.416 0-8 3.592-8 8zM842.256 355.432c-1.52-1.744-3.712-2.744-6.024-2.744h-557.112v222.616h557.12c2.312 0 4.504-1 6.024-2.744l94.632-108.56z" />
<glyph unicode="&#xe92a;" d="M854.32 287.080c-4.56 5.224-11.16 8.224-18.088 8.224h-773.112c-13.232 0-24-10.768-24-24v-206.616c0-13.232 10.768-24 24-24h773.12c6.936 0 13.528 3 18.088 8.232l94.64 108.56c5.224 6 5.224 15.032 0 21.024zM55.12 64.688v206.616c0 4.408 3.592 8 8 8h200v-222.616h-200c-4.416 0-8 3.592-8 8zM842.256 59.432c-1.52-1.744-3.712-2.744-6.024-2.744h-557.112v222.616h557.12c2.312 0 4.504-1 6.024-2.744l94.632-108.56z" />
<glyph unicode="&#xe92b;" d="M194.56 157.816c3.752-4.984 5.624-11.064 5.624-18.224 0-6.832-1.76-12.768-5.288-17.808s-8.6-8.936-15.208-11.672c-6.608-2.744-14.28-4.12-23.016-4.12-7.28 0-14.256 1.064-20.912 3.192-6.664 2.128-12.408 5.096-17.224 8.904-1.68 1.232-2.88 2.576-3.608 4.032s-1.096 3.136-1.096 5.040c0 2.912 0.84 5.4 2.52 7.48 1.68 2.072 3.696 3.104 6.048 3.104 1.344 0 2.576-0.192 3.696-0.584s2.52-1.096 4.2-2.104c4.928-2.8 9.184-4.928 12.768-6.384s7.784-2.184 12.6-2.184c6.832 0 11.816 1.256 14.952 3.784 3.136 2.52 4.704 6.464 4.704 11.84 0 5.264-1.624 9.072-4.872 11.424s-8.456 3.528-15.624 3.528h-9.912c-2.912 0-5.208 1.008-6.888 3.024s-2.52 4.424-2.52 7.224c0 2.688 0.84 5.040 2.52 7.056s3.976 3.024 6.888 3.024h7.056c6.832 0 11.896 1.176 15.2 3.528s4.96 5.992 4.96 10.92c0 4.704-1.4 8.368-4.2 11s-6.72 3.952-11.76 3.952c-4.144 0-8.008-0.728-11.592-2.184s-7.728-3.584-12.432-6.384c-1.68-1.008-3.080-1.704-4.2-2.096s-2.352-0.592-3.696-0.592c-2.352 0-4.368 1.032-6.048 3.112-1.68 2.072-2.52 4.56-2.52 7.48 0 2.016 0.36 3.72 1.096 5.12 0.728 1.4 1.928 2.712 3.616 3.952 4.704 3.808 10.336 6.776 16.88 8.904 6.552 2.128 13.24 3.192 20.072 3.192 7.952 0 14.952-1.32 21-3.952s10.696-6.36 13.944-11.168c3.248-4.816 4.872-10.416 4.872-16.8s-1.656-11.96-4.96-16.712c-3.304-4.76-7.864-8.208-13.688-10.336 6.944-2.024 12.288-5.528 16.048-10.512z" />
<glyph unicode="&#xe92c;" glyph-name="instagram" d="M704 960h-384c-176.704 0-320-143.296-320-320v-384c0-176.704 143.296-320 320-320h384c176.704 0 320 143.296 320 320v384c0 176.704-143.296 320-320 320zM928 256c0-123.52-100.48-224-224-224h-384c-123.52 0-224 100.48-224 224v384c0 123.52 100.48 224 224 224h384c123.52 0 224-100.48 224-224v-384zM512 704c-141.376 0-256-114.624-256-256s114.624-256 256-256 256 114.624 256 256-114.624 256-256 256zM512 288c-88.192 0-160 71.808-160 160 0 88.256 71.808 160 160 160s160-71.744 160-160c0-88.192-71.808-160-160-160zM821.312 723.2c0-18.84-15.272-34.112-34.112-34.112s-34.112 15.272-34.112 34.112c0 18.84 15.272 34.112 34.112 34.112s34.112-15.272 34.112-34.112z" />
<glyph unicode="&#xe92d;" glyph-name="lamp" d="M512 812.501c-17.664 0-32 14.336-32 32v83.499c0 17.664 14.336 32 32 32s32-14.336 32-32v-83.499c0-17.664-14.336-32-32-32zM792.363 696.363c-8.192 0-16.384 3.115-22.613 9.387-12.501 12.501-12.501 32.768 0 45.269l59.051 59.051c12.501 12.501 32.768 12.501 45.269 0s12.501-32.768 0-45.269l-59.051-59.051c-6.272-6.229-14.464-9.387-22.656-9.387zM992 416h-83.499c-17.664 0-32 14.336-32 32s14.336 32 32 32h83.499c17.664 0 32-14.336 32-32s-14.336-32-32-32zM851.413 76.587c-8.192 0-16.384 3.115-22.613 9.387l-59.051 59.051c-12.501 12.501-12.501 32.768 0 45.269s32.768 12.501 45.269 0l59.051-59.051c12.501-12.501 12.501-32.768 0-45.269-6.272-6.272-14.464-9.387-22.656-9.387zM172.587 76.587c-8.192 0-16.384 3.115-22.613 9.387-12.501 12.501-12.501 32.768 0 45.269l59.051 59.051c12.501 12.501 32.768 12.501 45.269 0s12.501-32.768 0-45.269l-59.051-59.051c-6.272-6.272-14.464-9.387-22.656-9.387zM115.499 416h-83.499c-17.664 0-32 14.336-32 32s14.336 32 32 32h83.499c17.664 0 32-14.336 32-32s-14.336-32-32-32zM231.637 696.363c-8.192 0-16.384 3.115-22.613 9.387l-59.051 59.051c-12.501 12.501-12.501 32.768 0 45.269s32.768 12.501 45.269 0l59.051-59.051c12.501-12.501 12.501-32.768 0-45.269-6.315-6.229-14.464-9.387-22.656-9.387zM640 64v-53.333c0-40.96-33.707-74.667-74.667-74.667h-106.667c-35.84 0-74.667 27.307-74.667 87.040v40.96zM700.16 680.107c-69.973 56.747-162.133 78.933-252.16 59.733-113.067-23.467-204.8-115.627-228.267-228.693-23.893-116.053 19.627-231.253 112.64-301.653 25.173-18.773 42.667-47.787 48.64-81.493v-0.427c0.853 0.427 2.133 0.427 2.987 0.427h256c0.853 0 1.28 0 2.133-0.427v0.427c5.973 32.427 25.173 62.293 54.613 85.333 72.107 57.173 113.92 142.507 113.92 234.667 0 90.453-40.107 174.933-110.507 232.107zM672 426.667c-17.493 0-32 14.507-32 32 0 64.853-52.48 117.333-117.333 117.333-17.493 0-32 14.507-32 32s14.507 32 32 32c99.84 0 181.333-81.493 181.333-181.333 0-17.493-14.507-32-32-32zM381.013 128h2.987c-0.853 0-2.133 0-2.987-0.427zM642.133 128v-0.427c-0.853 0.427-1.28 0.427-2.133 0.427z" />
<glyph unicode="&#xe92e;" glyph-name="language-solid" horiz-adv-x="1280" d="M304.2 487.6c-7 24.2-15.6 66.4-15.6 66.4h-1s-8.6-42.2-15.6-66.4l-22.2-75h76.2zM1232 768h-560v-640h560c26.6 0 48 21.4 48 48v544c0 26.6-21.4 48-48 48zM1184 528c0-13.2-10.8-24-24-24h-22.8c-13.8-47.2-43.4-94.8-85.4-139.8 16.8-12.8 34.2-25 52.2-36 11-6.8 14.6-21 8.2-32.4l-15.8-27.8c-6.8-11.8-21.8-15.6-33.4-8.6-25.2 15.6-49 32.2-70.8 49.8-21.8-17.4-45.4-34.2-70.8-49.8-11.6-7-26.6-3.2-33.4 8.6l-15.8 27.8c-6.4 11.2-2.8 25.6 8.4 32.4 18.6 11.4 36 23.4 52.2 36-15.8 16.8-29.8 34-42 51.4-8 11.4-4.4 27.2 7.4 34.2l13 7.8 14.6 8.6c10.8 6.4 24.8 3.4 32-6.8 10-14 21.6-28 34.8-41.8 27 28.4 47.6 57.8 60 86.4h-228.6c-13.2 0-24 10.8-24 24v32c0 13.2 10.8 24 24 24h128v32c0 13.2 10.8 24 24 24h32c13.2 0 24-10.8 24-24v-32h128c13.2 0 24-10.8 24-24zM0 720v-544c0-26.6 21.4-48 48-48h560v640h-560c-26.6 0-48-21.4-48-48zM117.8 287.8l115 338.2c3.4 9.8 12.4 16.2 22.8 16.2h65c10.2 0 19.4-6.6 22.8-16.2l115-338.2c5.2-15.6-6.2-31.8-22.8-31.8h-45.8c-10.824 0.008-19.971 7.18-22.956 17.030l-0.044 0.17-18.8 63.8h-120.4l-18.2-63.6c-3-10.2-12.4-17.4-23-17.4h-45.8c-16.4 0-28 16.2-22.8 31.8z" />
<glyph unicode="&#xe92f;" glyph-name="layer-group-solid" d="M24.82 663.96l465.88-211.34c13.6-6.18 28.98-6.18 42.58 0l465.88 211.34c33.1 15.020 33.1 65.040 0 80.060l-465.86 211.36c-6.249 2.927-13.57 4.635-21.29 4.635s-15.041-1.708-21.605-4.767l0.315 0.132-465.9-211.34c-33.1-15.020-33.1-65.060 0-80.080zM999.18 487.4l-116.18 52.66-323.28-146.54c-15.12-6.86-31.18-10.34-47.72-10.34s-32.58 3.48-47.72 10.34l-323.26 146.54-116.2-52.66c-33.1-15-33.1-65 0-80l465.88-211.18c13.6-6.16 28.98-6.16 42.58 0l465.9 211.18c33.1 15 33.1 65 0 80zM999.18 231.8l-115.74 52.46-323.72-146.74c-15.12-6.86-31.18-10.34-47.72-10.34s-32.58 3.48-47.72 10.34l-323.7 146.74-115.76-52.46c-33.1-15-33.1-65 0-80l465.88-211.18c13.6-6.16 28.98-6.16 42.58 0l465.9 211.18c33.1 15 33.1 65 0 80z" />
<glyph unicode="&#xe930;" glyph-name="leanpub-brands" horiz-adv-x="1152" d="M773.078 737.030l30.192-497.91-21.958 0.55c-72.464 1.648-143.28-17.566-205.314-55.994-62.032 38.428-132.848 55.994-205.314 55.994-91.128 0-164.14-21.41-247.032-55.446l62.582 516.576c57.092 23.606 122.968 36.23 184.452 36.23 82.346 0 147.672-26.35 205.314-85.088 55.446 56.542 118.026 83.442 197.078 85.088zM1138.14 64c-51.052 0-94.97 10.43-141.084 31.29-68.62 31.29-139.986 49.956-215.742 49.956-77.954 0-149.868-25.802-205.314-81.246-55.446 55.446-127.36 81.246-205.314 81.246-75.756 0-147.122-18.666-215.742-49.956-44.466-19.762-89.482-31.29-138.338-31.29h-2.746l85.090 698.282c78.502 44.466 174.022 69.718 264.6 69.718 74.11 0 150.418-15.37 212.45-58.19 62.032 42.82 138.34 58.19 212.45 58.19 90.578 0 186.098-25.252 264.6-69.718l85.090-698.282zM1051.404 153.482l-68.072 560.492c-61.484 27.998-134.496 42.82-202.018 42.82-76.856 0-148.77-24.154-205.314-77.404-56.544 53.25-128.456 77.404-205.314 77.404-67.522 0-140.534-14.822-202.018-42.82l-68.072-560.492c94.422 38.974 165.788 66.972 270.090 66.972 75.208 0 141.634-19.212 205.314-59.288 63.68 40.076 130.104 59.288 205.314 59.288 104.302 0 175.668-27.998 270.090-66.972z" />
<glyph unicode="&#xe931;" glyph-name="linkedin" d="M1023.744-64v0.043h0.256v375.552c0 183.723-39.552 325.248-254.336 325.248-103.253 0-172.544-56.661-200.832-110.379h-2.987v93.227h-203.648v-683.648h212.053v338.517c0 89.131 16.896 175.317 127.275 175.317 108.757 0 110.379-101.717 110.379-181.035v-332.843zM16.896 619.648h212.309v-683.648h-212.309zM122.965 960c-67.883 0-122.965-55.083-122.965-122.965s55.083-124.117 122.965-124.117 122.965 56.235 122.965 124.117c-0.043 67.883-55.125 122.965-122.965 122.965z" />
<glyph unicode="&#xe932;" glyph-name="list-1" d="M984 488h-695.476c-22.092 0-40-17.908-40-40s17.908-40 40-40h695.476c22.092 0 40 17.908 40 40s-17.908 40-40 40zM984 788h-695.476c-22.092 0-40-17.908-40-40s17.908-40 40-40h695.476c22.092 0 40 17.908 40 40s-17.908 40-40 40zM984 188h-695.476c-22.092 0-40-17.908-40-40s17.908-40 40-40h695.476c22.092 0 40 17.908 40 40s-17.908 40-40 40zM108 748c0-29.823-24.177-54-54-54s-54 24.177-54 54c0 29.823 24.177 54 54 54s54-24.177 54-54zM108 448c0-29.823-24.177-54-54-54s-54 24.177-54 54c0 29.823 24.177 54 54 54s54-24.177 54-54zM108 148c0-29.823-24.177-54-54-54s-54 24.177-54 54c0 29.823 24.177 54 54 54s54-24.177 54-54z" />
<glyph unicode="&#xe933;" glyph-name="list" d="M511.986 960c-282.757 0-511.983-229.243-511.983-511.99 0-282.761 229.226-512.010 511.983-512.010s512.010 229.25 512.010 512.010-229.253 511.99-512.010 511.99zM308.285 262.1c-19.548 0-35.366 15.821-35.366 35.376 0 19.538 15.821 35.359 35.366 35.359 19.538 0 35.366-15.821 35.366-35.359 0-19.555-15.828-35.376-35.366-35.376zM308.285 412.634c-19.548 0-35.366 15.821-35.366 35.386 0 19.538 15.821 35.359 35.366 35.359 19.538 0 35.366-15.821 35.366-35.359 0-19.569-15.828-35.386-35.366-35.386zM308.285 563.166c-19.548 0-35.366 15.821-35.366 35.376 0 19.538 15.821 35.359 35.366 35.359 19.538 0 35.366-15.821 35.366-35.359 0-19.555-15.828-35.376-35.366-35.376zM751.084 264.315h-331.581c-19.555 0-35.41 15.855-35.41 35.41s15.855 35.41 35.41 35.41h331.581c19.555 0 35.41-15.855 35.41-35.41s-15.855-35.41-35.41-35.41zM751.084 413.703h-331.581c-19.555 0-35.41 15.855-35.41 35.41s15.855 35.41 35.41 35.41h331.581c19.555 0 35.41-15.855 35.41-35.41 0-19.552-15.855-35.41-35.41-35.41zM751.084 563.094h-331.581c-19.555 0-35.41 15.855-35.41 35.41s15.855 35.41 35.41 35.41h331.581c19.555 0 35.41-15.855 35.41-35.41s-15.855-35.41-35.41-35.41z" />
<glyph unicode="&#xe934;" glyph-name="loupe-1" d="M1011.488 8.835l-291.197 291.197c56.405 69.673 90.367 158.206 90.367 254.632 0 223.486-181.844 405.33-405.33 405.33s-405.328-181.842-405.328-405.328 181.844-405.33 405.33-405.33c96.425 0 184.958 33.962 254.632 90.367l291.197-291.197c8.32-8.32 19.242-12.502 30.166-12.502s21.846 4.182 30.166 12.502c16.682 16.682 16.682 43.648-0.002 60.329zM405.33 234.669c-176.468 0-319.997 143.529-319.997 319.997s143.529 319.997 319.997 319.997 319.997-143.529 319.997-319.997-143.531-319.997-319.997-319.997z" />
<glyph unicode="&#xe935;" glyph-name="loupe" d="M1011.488 8.835l-291.197 291.197c56.405 69.673 90.367 158.206 90.367 254.632 0 223.486-181.844 405.33-405.33 405.33s-405.328-181.842-405.328-405.328 181.844-405.33 405.33-405.33c96.425 0 184.958 33.962 254.632 90.367l291.197-291.197c8.32-8.32 19.242-12.502 30.166-12.502s21.846 4.182 30.166 12.502c16.682 16.682 16.682 43.648-0.002 60.329zM405.33 234.669c-176.468 0-319.997 143.529-319.997 319.997s143.529 319.997 319.997 319.997 319.997-143.529 319.997-319.997-143.531-319.997-319.997-319.997z" />
<glyph unicode="&#xe936;" glyph-name="menu" d="M981.333 406.219h-938.667c-23.552 0-42.667 19.115-42.667 42.667s19.115 42.667 42.667 42.667h938.667c23.552 0 42.667-19.115 42.667-42.667s-19.115-42.667-42.667-42.667zM981.333 733.333h-938.667c-23.552 0-42.667 19.115-42.667 42.667s19.115 42.667 42.667 42.667h938.667c23.552 0 42.667-19.115 42.667-42.667s-19.115-42.667-42.667-42.667zM981.333 79.115h-938.667c-23.552 0-42.667 19.115-42.667 42.667s19.115 42.667 42.667 42.667h938.667c23.552 0 42.667-19.115 42.667-42.667s-19.115-42.667-42.667-42.667z" />
<glyph unicode="&#xe937;" glyph-name="moon-solid" d="M566.422-64c157.924 0 302.158 71.85 397.714 189.584 14.136 17.416-1.278 42.86-23.124 38.7-248.406-47.308-476.524 143.152-476.524 393.908 0 144.444 77.324 277.27 202.996 348.788 19.372 11.024 14.5 40.394-7.512 44.46-28.125 5.44-60.472 8.555-93.546 8.56h-0.004c-282.618 0-512-229.022-512-512 0-282.618 229.022-512 512-512z" />
<glyph unicode="&#xe938;" glyph-name="newspaper-solid" horiz-adv-x="1152" d="M1104 832h-928c-26.51 0-48-21.49-48-48v-16h-80c-26.51 0-48-21.49-48-48v-544c0-61.856 50.144-112 112-112h944c53.020 0 96 42.98 96 96v624c0 26.51-21.49 48-48 48zM112 160c-8.837 0-16 7.163-16 16v0 496h32v-496c0-8.837-7.163-16-16-16v0zM584 192h-304c-13.254 0-24 10.746-24 24v16c0 13.254 10.746 24 24 24h304c13.254 0 24-10.746 24-24v-16c0-13.254-10.746-24-24-24zM1000 192h-304c-13.254 0-24 10.746-24 24v16c0 13.254 10.746 24 24 24h304c13.254 0 24-10.746 24-24v-16c0-13.254-10.746-24-24-24zM584 384h-304c-13.254 0-24 10.746-24 24v16c0 13.254 10.746 24 24 24h304c13.254 0 24-10.746 24-24v-16c0-13.254-10.746-24-24-24zM1000 384h-304c-13.254 0-24 10.746-24 24v16c0 13.254 10.746 24 24 24h304c13.254 0 24-10.746 24-24v-16c0-13.254-10.746-24-24-24zM1000 576h-720c-13.254 0-24 10.746-24 24v80c0 13.254 10.746 24 24 24h720c13.254 0 24-10.746 24-24v-80c0-13.254-10.746-24-24-24z" />
<glyph unicode="&#xe939;" glyph-name="oval-black-speech-bubble" d="M1009.746 464.488c0-102.795-45.352-196.6-119.98-268.953v-177.765l-177.765 67.999c-61.228-22.448-128.8-35.052-200.014-35.052-274.899 0-497.76 185.248-497.76 413.743s222.861 413.771 497.76 413.771 497.76-185.248 497.76-413.743zM889.766 3.544c-1.736 0-3.443 0.313-5.093 0.939l-172.815 66.093c-63.561-22.647-130.792-34.113-199.872-34.113-282.296 0.028-511.986 192.020-511.986 427.997s229.689 427.997 511.986 427.997c282.325 0 511.986-191.991 511.986-427.968 0-100.462-42.564-197.852-119.98-274.927v-171.791c0-4.695-2.305-9.048-6.174-11.722-2.361-1.622-5.207-2.504-8.052-2.504zM712 99.995c1.736 0 3.443-0.313 5.093-0.939l158.447-60.602v157.081c0 3.869 1.565 7.54 4.325 10.214 74.572 72.295 115.627 164.194 115.627 258.738 0 220.3-216.915 399.517-483.534 399.517s-483.506-179.216-483.506-399.545 216.915-399.545 483.534-399.545c67.572 0 133.239 11.494 195.121 34.199 1.593 0.597 3.243 0.882 4.894 0.882z" />
<glyph unicode="&#xe93a;" glyph-name="padlock-1" d="M800 576h-32v128c0 141.184-114.816 256-256 256s-256-114.816-256-256v-128h-32c-52.907 0-96-43.051-96-96v-448c0-52.949 43.093-96 96-96h576c52.907 0 96 43.051 96 96v448c0 52.949-43.093 96-96 96zM341.333 704c0 94.123 76.544 170.667 170.667 170.667s170.667-76.544 170.667-170.667v-128h-341.333zM554.667 246.528v-97.195c0-23.552-19.072-42.667-42.667-42.667s-42.667 19.115-42.667 42.667v97.195c-25.387 14.805-42.667 42.027-42.667 73.472 0 47.061 38.272 85.333 85.333 85.333s85.333-38.272 85.333-85.333c0-31.445-17.28-58.667-42.667-73.472z" />
<glyph unicode="&#xe93b;" glyph-name="padlock-2" d="M800 576h-32v128c0 141.184-114.816 256-256 256s-256-114.816-256-256v-128h-32c-52.907 0-96-43.051-96-96v-448c0-52.949 43.093-96 96-96h576c52.907 0 96 43.051 96 96v448c0 52.949-43.093 96-96 96zM341.333 704c0 94.123 76.544 170.667 170.667 170.667s170.667-76.544 170.667-170.667v-128h-341.333zM554.667 246.528v-97.195c0-23.552-19.072-42.667-42.667-42.667s-42.667 19.115-42.667 42.667v97.195c-25.387 14.805-42.667 42.027-42.667 73.472 0 47.061 38.272 85.333 85.333 85.333s85.333-38.272 85.333-85.333c0-31.445-17.28-58.667-42.667-73.472z" />
<glyph unicode="&#xe93c;" glyph-name="padlock" d="M511.998 408.789c-29.4 0-53.242-23.832-53.242-53.242 0-19.716 10.749-36.889 26.682-46.098v-59.192h53.119v59.192c15.934 9.206 26.682 26.382 26.682 46.098 0 29.41-23.839 53.242-53.242 53.242zM512.019 666.964c-44.753 0-81.153-36.404-81.153-81.153v-86.424h162.3v86.424c-0.003 44.743-36.404 81.153-81.147 81.153zM511.991 959.997c-282.762 0-511.991-229.236-511.991-511.998 0-282.755 229.23-511.998 511.991-511.998s512.009 229.247 512.009 511.998c0 282.762-229.247 511.998-512.009 511.998zM669.315 184.758h-314.622c-33.226 0-60.164 26.938-60.164 60.175v194.287c0 28.983 20.504 53.187 47.798 58.881v87.714c0 93.558 76.119 169.683 169.683 169.683 93.558 0 169.676-76.119 169.676-169.683v-87.714c27.283-5.711 47.787-29.898 47.787-58.881v-194.287h0.007c0-33.233-26.938-60.175-60.164-60.175z" />
<glyph unicode="&#xe93d;" glyph-name="paper-plane-solid" d="M952 953.6l-927-534.8c-36.2-20.8-31.6-71.2 4.4-86.4l212.6-89.2 574.6 506.4c11 9.8 26.6-5.2 17.2-16.6l-481.8-587v-161c0-47.2 57-65.8 85-31.6l127 154.6 249.2-104.4c28.4-12 60.8 5.8 66 36.4l144 864c6.8 40.4-36.6 69.6-71.2 49.6z" />
<glyph unicode="&#xe93e;" glyph-name="percent-solid" horiz-adv-x="896" d="M224 512c123.8 0 224 100.2 224 224s-100.2 224-224 224-224-100.2-224-224 100.2-224 224-224zM224 832c53 0 96-43 96-96s-43-96-96-96-96 43-96 96 43 96 96 96zM672 384c-123.8 0-224-100.2-224-224s100.2-224 224-224 224 100.2 224 224-100.2 224-224 224zM672 64c-53 0-96 43-96 96s43 96 96 96 96-43 96-96-43-96-96-96zM784.6 959.6l63.2 0.2c38.8 0.2 61.8-43.6 39.4-75.6l-732.4-927.4c-8.773-12.397-23.052-20.393-39.199-20.4h-0.001l-66.8-0.2c-39 0-61.8 43.8-39.4 75.6l736 927.4c9 12.8 23.6 20.4 39.2 20.4z" />
<glyph unicode="&#xe93f;" glyph-name="pin" d="M512 960c-211.75 0-384-172.27-384-384 0-283.292 354.292-620 369.376-634.208 4.124-3.854 9.374-5.792 14.624-5.792s10.5 1.938 14.626 5.792c15.082 14.208 369.374 350.916 369.374 634.208 0 211.73-172.25 384-384 384zM512 362.666c-117.626 0-213.334 95.708-213.334 213.334s95.71 213.334 213.334 213.334 213.334-95.71 213.334-213.334-95.708-213.334-213.334-213.334z" />
<glyph unicode="&#xe940;" glyph-name="placeholder" d="M595.926 582.577c0-45.525-36.905-82.429-82.429-82.429s-82.429 36.905-82.429 82.429c0 45.525 36.905 82.429 82.429 82.429s82.429-36.905 82.429-82.429zM511.991 960c-282.76 0-511.988-229.235-511.988-511.995 0-282.753 229.228-512.005 511.988-512.005s512.005 229.252 512.005 512.005c0 282.76-229.245 511.995-512.005 511.995zM510.93 725.577c0.362 0 0.717 0.017 1.072 0.034 0.355-0.017 0.707-0.034 1.072-0.034 86.269-1.362 156.448-72.664 156.448-158.954 0-105.5-112.723-212.329-157.52-250.606-2.994 2.56-6.311 5.444-9.861 8.605-0.061 0.055-0.116 0.099-0.167 0.15-49.576 44.053-147.488 143.515-147.488 241.851-0.003 86.29 70.182 157.588 156.445 158.954zM514.224 167.245c-94.424 0-190.019 27.088-190.019 78.842 0 36.322 47.070 60.475 107.757 71.664 11.739-11.8 22.849-22.204 32.598-30.888-66.103-7.383-104.941-28.31-104.941-40.766 0-15.306 58.693-43.432 154.605-43.432s154.615 28.126 154.615 43.432c0 12.711-40.476 34.164-108.979 41.138 9.834 8.783 21.033 19.282 32.86 31.205 62.509-10.882 111.528-35.277 111.528-72.353 0-51.753-95.595-78.842-190.026-78.842z" />
<glyph unicode="&#xe941;" glyph-name="poll-solid" horiz-adv-x="896" d="M800 896h-704c-53 0-96-43-96-96v-704c0-53 43-96 96-96h704c53 0 96 43 96 96v704c0 53-43 96-96 96zM320 224c0-17.68-14.32-32-32-32h-64c-17.68 0-32 14.32-32 32v256c0 17.68 14.32 32 32 32h64c17.68 0 32-14.32 32-32v-256zM512 224c0-17.68-14.32-32-32-32h-64c-17.68 0-32 14.32-32 32v448c0 17.68 14.32 32 32 32h64c17.68 0 32-14.32 32-32v-448zM704 224c0-17.68-14.32-32-32-32h-64c-17.68 0-32 14.32-32 32v128c0 17.68 14.32 32 32 32h64c17.68 0 32-14.32 32-32v-128z" />
<glyph unicode="&#xe942;" glyph-name="profile-user" d="M512 959.978c-282.74 0-512-229.215-512-511.978s229.237-511.978 512-511.978c282.785 0 512 229.215 512 511.978s-229.215 511.978-512 511.978zM512 806.89c93.557 0 169.37-75.835 169.37-169.347 0-93.535-75.813-169.347-169.37-169.347-93.512 0-169.325 75.813-169.325 169.347 0 93.512 75.813 169.347 169.325 169.347zM511.888 69.881c-93.31 0-178.77 33.982-244.688 90.229-16.058 13.696-25.323 33.779-25.323 54.852 0 94.839 76.757 170.742 171.619 170.742h197.055c94.884 0 171.349-75.903 171.349-170.742 0-21.095-9.221-41.134-25.301-54.83-65.895-56.269-151.378-90.251-244.71-90.251z" />
<glyph unicode="&#xe943;" glyph-name="readme-brands" horiz-adv-x="1152" d="M1056.6 867h-279.6c-96.2 0-179.8-66.6-200.8-160.6-21.2 94-104.6 160.6-200.8 160.6h-279.4c-53 0-96-43-96-96v-491.6c0-53 43-96 96-96h179.4c204.4 0 265.4-48.8 294.6-150 1.4-5.6 10.4-5.6 12 0 29.4 101.2 90.4 150 294.6 150h179.4c53 0 96 43 96 96v491.4c0 52.8-42.6 95.8-95.4 96.2zM484 336.2c0-3.8-3-7-7-7h-320.6c-3.8 0-7 3-7 7v45.8c0 3.8 3 7 7 7h320.8c3.8 0 7-3 7-7v-45.8zM484 458c0-3.8-3-7-7-7h-320.6c-3.8 0-7 3-7 7v45.8c0 3.8 3 7 7 7h320.8c3.8 0 7-3 7-7v-45.8zM484 579.8c0-3.8-3-7-7-7h-320.6c-3.8 0-7 3-7 7v45.8c0 3.8 3 7 7 7h320.8c3.8 0 7-3 7-7v-45.8zM1002.6 336.4c0-3.8-3-7-7-7h-320.6c-3.8 0-7 3-7 7v45.8c0 3.8 3 7 7 7h320.8c3.8 0 7-3 7-7v-45.8zM1002.6 458.2c0-3.8-3-7-7-7h-320.6c-3.8 0-7 3-7 7v45.8c0 3.8 3 7 7 7h320.8c3.8 0 7-3 7-7v-45.8zM1002.6 580c0-3.8-3-7-7-7h-320.6c-3.8 0-7 3-7 7v45.6c0 3.8 3 7 7 7h320.8c3.8 0 7-3 7-7v-45.6z" />
<glyph unicode="&#xe944;" d="M511.956 960c-282.77-0.025-511.981-229.276-511.956-512.044 0.025-282.77 229.276-511.979 512.044-511.956 282.751 0.025 511.956 229.249 511.956 512-0.319 282.656-229.39 511.706-512.044 512z" />
<glyph unicode="&#xe945;" d="M423.218 158.513c-12.289-0.023-22.269 9.923-22.292 22.212-0.010 5.924 2.343 11.609 6.538 15.793l251.35 251.26-251.35 251.258c-8.536 8.839-8.292 22.926 0.547 31.464 8.624 8.328 22.294 8.328 30.915 0l267.014-267.014c8.686-8.688 8.686-22.773 0-31.464l-267.014-267.014c-4.168-4.16-9.817-6.496-15.708-6.496z" />
<glyph unicode="&#xe946;" glyph-name="scroll-solid" horiz-adv-x="1280" d="M96 960c-52.94 0-96-43.060-96-96v-128c0-17.68 14.32-32 32-32h160v160c0 52.94-43.060 96-96 96zM512 134.86v121.14h576v512c0 105.88-86.12 192-192 192h-672.82c20.3-26.82 32.82-59.84 32.82-96v-736c0-77.74 69.3-139.3 149.5-126.24 62.94 10.24 106.5 69.32 106.5 133.1zM576 192v-64c0-105.86-86.12-192-192-192h672c123.72 0 224 100.28 224 224 0 17.68-14.32 32-32 32h-672z" />
<glyph unicode="&#xe947;" glyph-name="search-engine" d="M973.96 44.368l-94.76 94.76c-2.531 2.535-6.031 4.104-9.896 4.104s-7.365-1.568-9.896-4.103v0l-7.368-7.368-12.8 12.8c30.734 35.871 49.441 82.837 49.441 134.172 0 55.032-21.499 105.043-56.555 142.093l0.090-0.096c7.776 29.533 12.24 63.438 12.24 98.386 0 74.193-20.123 143.686-55.208 203.319l1.024-1.882v0.064c-0.288 0.496-0.528 1.016-0.8 1.512v0c-0.216 0.36-0.416 0.72-0.664 1.064-52.412 88.446-135.442 154.057-234.18 182.758l-2.836 0.706c-32.874 9.661-70.644 15.234-109.712 15.264h-0.016c-0.28 0-0.544 0.080-0.8 0.080s-0.56-0.072-0.84-0.088c-39.071-0.018-76.835-5.586-112.555-15.957l2.851 0.709c-0.368-0.112-0.736-0.232-1.104-0.368-169.789-50.005-291.616-204.459-291.616-387.368 0-0.045 0-0.090 0-0.135v0.007c0-0.037 0-0.082 0-0.126 0-183.345 122.376-338.108 289.902-387.064l2.85-0.714 0.4-0.104c32.872-9.664 70.636-15.224 109.7-15.224 35.004 0 68.966 4.465 101.346 12.856l-2.798-0.615c36.955-34.932 86.95-56.407 141.96-56.407 53.297 0 101.885 20.158 138.557 53.265l-0.182-0.162 12.504-12.504-11.312-11.304c-2.532-2.534-4.098-6.034-4.098-9.9s1.566-7.366 4.098-9.9v0l94.76-94.76c7.456-7.457 17.757-12.070 29.136-12.070 22.755 0 41.202 18.447 41.202 41.202 0 11.377-4.611 21.676-12.066 29.132v0zM342.656 156.736c-30.032 37.008-54.768 89.104-72.2 151.744h156.744v-164.424c-30.531 1.116-59.501 5.673-87.198 13.304l2.654-0.624zM113.376 336.48c-27.473 48.537-44.581 106.192-46.892 167.634l-0.020 0.686h148.88c0.675-59.981 7.634-117.97 20.249-173.814l-1.049 5.526zM113.376 701.080h121.16c-11.569-50.328-18.529-108.325-19.196-167.834l-0.004-0.478h-148.872c2.312 62.127 19.428 119.784 47.897 170.177l-0.969-1.865zM342.672 880.8c25.050 7.032 54.019 11.587 83.877 12.646l0.651 0.018v-164.384h-156.8c17.496 62.632 42.232 114.728 72.272 151.72zM539.848 880.8c30.032-37.048 54.76-89.128 72.168-151.704h-156.816v164.368c30.549-1.072 59.56-5.626 87.282-13.285l-2.634 0.621zM769.008 701.080c27.511-48.516 44.648-106.157 46.971-167.592l0.021-0.688h-148.912c-0.673 59.987-7.615 117.985-20.2 173.847l1.048-5.535zM639.080 532.8h-183.88v168.28h164c11.892-50.278 19.094-108.231 19.874-167.732l0.006-0.548zM427.2 701.080v-168.28h-183.848c0.79 60.064 8.012 118.025 21.008 173.769l-1.072-5.457zM243.352 504.8h183.848v-168.32h-163.92c-11.921 50.29-19.14 108.255-19.922 167.774l-0.006 0.546zM455.2 308.48h20.936c-1.38-8.969-2.168-19.315-2.168-29.845 0-48.176 16.497-92.5 44.151-127.629l-0.335 0.442c-18.42-3.97-39.933-6.644-61.927-7.429l-0.657-0.019zM482.216 336.48h-27.016v168.32h183.88q-0.192-11.496-0.688-23.2c-75.185-16.505-134.291-71.947-155.765-143.647l-0.379-1.473zM667.080 504.8h148.92c-0.801-22.624-3.469-44.113-7.865-64.965l0.433 2.453c-34.655 27.308-78.943 43.8-127.084 43.8-0.041 0-0.082 0-0.123 0h0.006c-4.976 0-9.888-0.24-14.776-0.584 0.224 6.496 0.392 12.896 0.488 19.296zM751.88 729.112h-110.744c-13.174 51.682-32.415 97.074-57.399 138.619l1.287-2.307c69.075-29.034 125.821-75.963 166.032-135.049l0.832-1.295zM297.44 865.36c-23.682-39.229-42.916-84.609-55.32-132.733l-0.776-3.547h-110.808c41.063 60.358 97.821 107.266 164.453 135.363l2.451 0.917zM130.512 308.48h110.824c13.192-51.716 32.449-97.136 57.448-138.709l-1.288 2.309c-69.118 29.048-125.903 75.995-166.152 135.105l-0.832 1.295zM502 278.704c0 99.053 80.299 179.352 179.352 179.352s179.352-80.299 179.352-179.352c0-99.053-80.299-179.352-179.352-179.352v0c-99.008 0.114-179.238 80.344-179.352 179.341v0.011zM954.168 5.904c-2.422-2.316-5.713-3.741-9.336-3.741s-6.914 1.425-9.341 3.746l-84.867 84.859 10.864 10.864c0.152 0.144 0.336 0.248 0.488 0.4s0.256 0.336 0.4 0.488l6.92 6.92 84.872-84.864c2.388-2.39 3.865-5.69 3.865-9.336s-1.477-6.946-3.865-9.336v0z" />
<glyph unicode="&#xe948;" glyph-name="select" d="M799.275 384.043c-15.147-15.147-15.061-39.723 0.171-54.955l13.781-13.781c2.517-2.517 2.56-6.656 0.043-9.173s-6.613-2.517-9.173 0.043l-32.128 32.128c-15.232 15.232-39.808 15.275-54.955 0.171-15.147-15.147-15.061-39.723 0.171-54.955l32.128-32.128c2.517-2.517 2.56-6.656 0.043-9.173s-6.613-2.517-9.173 0.043l-50.517 50.517c-15.232 15.232-39.808 15.275-54.955 0.171-15.147-15.147-15.061-39.723 0.171-54.955l50.517-50.517c2.517-2.517 2.56-6.656 0.043-9.173s-6.613-2.517-9.173 0.043l-179.072 179.072c-15.232 15.232-39.808 15.275-54.955 0.171-15.147-15.147-15.061-39.723 0.171-54.955l215.509-215.509c-28.245 4.395-75.776 6.272-104.96-22.869-27.392-27.392-26.667-46.336-18.176-54.869 23.168-23.168 41.003 13.44 146.56-36.992 105.557-50.475 173.397-46.293 219.776-0.683l63.915 63.915c0.341 0.341-0.341-0.341 0 0 64.981 64.981 83.584 153.813 18.005 219.349-0.128 0.128-0.213 0.213-0.341 0.341l-128.555 128.555c-15.147 15.232-39.723 15.275-54.869 0.171zM810.667 960h-682.667c-70.699 0-128-57.301-128-128s57.301-128 128-128h682.667c70.699 0 128 57.301 128 128s-57.301 128-128 128zM128 789.333c-23.552 0-42.667 19.115-42.667 42.667s19.115 42.667 42.667 42.667 42.667-19.115 42.667-42.667-19.115-42.667-42.667-42.667zM298.667 789.333c-23.552 0-42.667 19.115-42.667 42.667s19.115 42.667 42.667 42.667 42.667-19.115 42.667-42.667-19.115-42.667-42.667-42.667zM810.667 618.667h-682.667c-70.827 0-128-57.173-128-128s57.173-128 128-128h221.867c5.547 20.48 16.64 39.68 32 55.040 48.64 48.64 127.147 48.64 175.787 0l43.947-43.947c14.080 8.107 29.867 13.227 46.080 14.933 17.109 22.784 46.891 41.173 82.347 45.653 37.163 49.579 121.813 72.747 194.987-0.427 8.96 17.067 13.653 36.267 13.653 56.747 0 70.827-57.173 128-128 128zM128 448c-23.467 0-42.667 19.2-42.667 42.667s19.2 42.667 42.667 42.667 42.667-19.2 42.667-42.667-19.2-42.667-42.667-42.667zM298.667 448c-23.467 0-42.667 19.2-42.667 42.667s19.2 42.667 42.667 42.667 42.667-19.2 42.667-42.667-19.2-42.667-42.667-42.667zM382.293 242.347c-10.24 10.24-18.773 22.187-24.747 34.987h-229.547c-70.827 0-128-57.173-128-128s57.173-128 128-128h316.16c0 42.667 29.483 91.648 52.053 106.667zM128 106.667c-23.467 0-42.667 19.2-42.667 42.667s19.2 42.667 42.667 42.667 42.667-19.2 42.667-42.667-19.2-42.667-42.667-42.667zM298.667 106.667c-23.467 0-42.667 19.2-42.667 42.667s19.2 42.667 42.667 42.667 42.667-19.2 42.667-42.667-19.2-42.667-42.667-42.667z" />
<glyph unicode="&#xe949;" glyph-name="send" d="M955.584 7.456c7.002 8.906 8.378 20.976 3.604 31.23l-420 905.45c-9.844 21.152-44.532 21.152-54.376 0l-420-905.45c-4.776-10.254-3.398-22.324 3.604-31.23 6.944-8.876 18.428-12.95 29.472-10.87l249.31 49.864 136.354 411.042c8.144 24.492 48.75 24.492 56.894 0l136.354-411.042 249.31-49.864c10.622-2.22 22.292 1.746 29.474 10.87zM512-64c7.676 0 15.352 2.93 21.21 8.79l85.69 85.69-106.9 322.656-106.9-322.658 85.69-85.69c5.858-5.858 13.534-8.788 21.21-8.788z" />
<glyph unicode="&#xe94a;" glyph-name="send-button" d="M0 9.143l1024 438.857-1024 438.857v-341.333l731.429-97.524-731.429-97.524z" />
<glyph unicode="&#xe94b;" glyph-name="settings-1" d="M414 560c0 22.092-17.908 40-40 40h-160c-22.092 0-40-17.908-40-40v-71.756h-174v-80h174v-68.244c0-22.092 17.908-40 40-40h160c22.092 0 40 17.908 40 40v68.244h610v80h-610v71.756zM334 380h-80v140h80v-140zM862 196c0 22.092-17.908 40-40 40h-160c-22.092 0-40-17.908-40-40v-70h-622v-80h622v-70c0-22.092 17.908-40 40-40h160c22.092 0 40 17.908 40 40v70h162v80h-162v70zM782 16h-80v140h80v-140zM866 848v72c0 22.092-17.908 40-40 40h-160c-22.092 0-40-17.908-40-40v-72h-626v-80h626v-68c0-22.092 17.908-40 40-40h160c22.092 0 40 17.908 40 40v68h158v80h-158zM786 740h-80v140h80v-140z" />
<glyph unicode="&#xe94c;" glyph-name="settings" d="M967.808 559.189l-80.213 10.197c-6.613 20.352-14.763 39.979-24.277 58.624l49.536 63.787c20.053 25.813 17.707 62.251-5.205 84.437l-67.2 67.2c-22.4 23.125-58.837 25.429-84.693 5.419l-63.701-49.536c-18.645 9.515-38.272 17.664-58.667 24.277l-10.197 80.085c-3.84 32.128-31.104 56.32-63.403 56.32h-95.573c-32.299 0-59.563-24.192-63.403-56.192l-10.197-80.213c-20.395-6.613-40.021-14.72-58.667-24.277l-63.744 49.536c-25.771 20.011-62.208 17.707-84.437-5.205l-67.2-67.157c-23.125-22.443-25.472-58.88-5.419-84.736l49.536-63.744c-9.557-18.645-17.664-38.272-24.277-58.624l-80.085-10.197c-32.128-3.84-56.32-31.104-56.32-63.403v-95.573c0-32.299 24.192-59.563 56.192-63.403l80.213-10.197c6.613-20.352 14.763-39.979 24.277-58.624l-49.536-63.787c-20.053-25.813-17.707-62.251 5.205-84.437l67.2-67.2c22.443-23.083 58.837-25.387 84.693-5.376l63.744 49.536c18.645-9.557 38.272-17.707 58.624-24.277l10.197-80.043c3.84-32.213 31.104-56.405 63.403-56.405h95.573c32.299 0 59.563 24.192 63.403 56.192l10.197 80.213c20.352 6.613 39.979 14.763 58.624 24.277l63.787-49.536c25.813-20.053 62.251-17.707 84.437 5.205l67.2 67.2c23.125 22.443 25.472 58.837 5.419 84.693l-49.536 63.744c9.557 18.645 17.707 38.272 24.277 58.624l80.043 10.197c32.128 3.84 56.32 31.104 56.32 63.403v95.573c0.043 32.299-24.149 59.563-56.149 63.403zM512 234.667c-117.632 0-213.333 95.701-213.333 213.333s95.701 213.333 213.333 213.333 213.333-95.701 213.333-213.333-95.701-213.333-213.333-213.333z" />
<glyph unicode="&#xe94d;" glyph-name="share-1" d="M948.664 789.336c0-76.586-62.078-138.672-138.664-138.672s-138.664 62.086-138.664 138.672c0 76.578 62.078 138.664 138.664 138.664s138.664-62.086 138.664-138.664zM810 618.664c-94.125 0-170.664 76.547-170.664 170.672 0 94.117 76.539 170.664 170.664 170.664s170.664-76.547 170.664-170.664c0-94.125-76.539-170.672-170.664-170.672zM810 896c-58.836 0-106.664-47.875-106.664-106.664 0-58.797 47.828-106.672 106.664-106.672s106.664 47.875 106.664 106.672c0 58.789-47.828 106.664-106.664 106.664zM948.664 106.664c0-76.578-62.078-138.664-138.664-138.664s-138.664 62.086-138.664 138.664c0 76.586 62.078 138.672 138.664 138.672s138.664-62.086 138.664-138.672zM810-64c-94.125 0-170.664 76.547-170.664 170.664 0 94.125 76.539 170.672 170.664 170.672s170.664-76.547 170.664-170.672c0-94.117-76.539-170.664-170.664-170.664zM810 213.336c-58.836 0-106.664-47.875-106.664-106.672 0-58.789 47.828-106.664 106.664-106.664s106.664 47.875 106.664 106.664c0 58.797-47.828 106.672-106.664 106.672zM351.336 448c0-76.586-62.086-138.664-138.672-138.664-76.578 0-138.664 62.078-138.664 138.664s62.086 138.664 138.664 138.664c76.586 0 138.672-62.078 138.672-138.664zM212.664 277.336c-94.117 0-170.664 76.539-170.664 170.664s76.547 170.664 170.664 170.664c94.125 0 170.672-76.539 170.672-170.664s-76.547-170.664-170.672-170.664zM212.664 554.664c-58.836 0-106.664-47.867-106.664-106.664s47.828-106.664 106.664-106.664c58.844 0 106.672 47.867 106.672 106.664s-47.828 106.664-106.672 106.664zM313.406 468.477c-14.852 0-29.273 7.727-37.125 21.547-11.648 20.438-4.477 46.508 15.961 58.203l395.898 225.703c20.438 11.734 46.508 4.563 58.203-15.953 11.648-20.438 4.477-46.508-15.961-58.203l-395.906-225.703c-6.656-3.797-13.906-5.594-21.070-5.594zM709.266 116.477c-7.172 0-14.422 1.797-21.078 5.594l-395.906 225.703c-20.438 11.648-27.602 37.719-15.953 58.203 11.602 20.477 37.711 27.688 58.195 15.953l395.906-225.703c20.438-11.648 27.602-37.719 15.953-58.203-7.891-13.82-22.313-21.547-37.117-21.547z" />
<glyph unicode="&#xe94e;" glyph-name="share" d="M948.664 789.336c0-76.586-62.078-138.672-138.664-138.672s-138.664 62.086-138.664 138.672c0 76.578 62.078 138.664 138.664 138.664s138.664-62.086 138.664-138.664zM810 618.664c-94.125 0-170.664 76.547-170.664 170.672 0 94.117 76.539 170.664 170.664 170.664s170.664-76.547 170.664-170.664c0-94.125-76.539-170.672-170.664-170.672zM810 896c-58.836 0-106.664-47.875-106.664-106.664 0-58.797 47.828-106.672 106.664-106.672s106.664 47.875 106.664 106.672c0 58.789-47.828 106.664-106.664 106.664zM948.664 106.664c0-76.578-62.078-138.664-138.664-138.664s-138.664 62.086-138.664 138.664c0 76.586 62.078 138.672 138.664 138.672s138.664-62.086 138.664-138.672zM810-64c-94.125 0-170.664 76.547-170.664 170.664 0 94.125 76.539 170.672 170.664 170.672s170.664-76.547 170.664-170.672c0-94.117-76.539-170.664-170.664-170.664zM810 213.336c-58.836 0-106.664-47.875-106.664-106.672 0-58.789 47.828-106.664 106.664-106.664s106.664 47.875 106.664 106.664c0 58.797-47.828 106.672-106.664 106.672zM351.336 448c0-76.586-62.086-138.664-138.672-138.664-76.578 0-138.664 62.078-138.664 138.664s62.086 138.664 138.664 138.664c76.586 0 138.672-62.078 138.672-138.664zM212.664 277.336c-94.117 0-170.664 76.539-170.664 170.664s76.547 170.664 170.664 170.664c94.125 0 170.672-76.539 170.672-170.664s-76.547-170.664-170.672-170.664zM212.664 554.664c-58.836 0-106.664-47.867-106.664-106.664s47.828-106.664 106.664-106.664c58.844 0 106.672 47.867 106.672 106.664s-47.828 106.664-106.672 106.664zM313.406 468.477c-14.852 0-29.273 7.727-37.125 21.547-11.648 20.438-4.477 46.508 15.961 58.203l395.898 225.703c20.438 11.734 46.508 4.563 58.203-15.953 11.648-20.438 4.477-46.508-15.961-58.203l-395.906-225.703c-6.656-3.797-13.906-5.594-21.070-5.594zM709.266 116.477c-7.172 0-14.422 1.797-21.078 5.594l-395.906 225.703c-20.438 11.648-27.602 37.719-15.953 58.203 11.602 20.477 37.711 27.688 58.195 15.953l395.906-225.703c20.438-11.648 27.602-37.719 15.953-58.203-7.891-13.82-22.313-21.547-37.117-21.547z" />
<glyph unicode="&#xe94f;" glyph-name="shopping-cart-1" d="M531.765 57.052c0-66.855-54.197-121.052-121.052-121.052s-121.052 54.197-121.052 121.052c0 66.855 54.197 121.052 121.052 121.052s121.052-54.197 121.052-121.052zM763.986 178.101v0c-66.854 0-121.052-54.198-121.052-121.052s54.198-121.052 121.052-121.052c66.854 0 121.052 54.198 121.052 121.052s-54.198 121.052-121.052 121.052zM970.268 301.625h-631.198l-12.352 71.643h518.793c15.262-0.046 28.991 9.271 34.586 23.469l123.522 311.276c7.505 19.040-1.848 40.56-20.888 48.063-4.362 1.72-9.011 2.596-13.698 2.581h-706.546l-29.645 170.46c-3.045 18.024-18.779 31.136-37.057 30.881h-142.050c-20.466 0-37.057-16.591-37.057-37.057s16.591-37.057 37.057-37.057h111.17l106.229-627.492c3.045-18.024 18.779-31.136 37.057-30.881h662.078c20.466 0 37.057 16.591 37.057 37.057s-16.591 37.057-37.057 37.057z" />
<glyph unicode="&#xe950;" glyph-name="shopping-cart" d="M329.922 297.992h0.047c0.039 0 0.078 0.008 0.117 0.008h543.914c13.391 0 25.164 8.883 28.844 21.758l120 420c2.586 9.055 0.773 18.789-4.891 26.305-5.672 7.516-14.539 11.937-23.953 11.937h-733.265l-21.445 96.508c-3.055 13.727-15.227 23.492-29.289 23.492h-180c-16.57 0-30-13.43-30-30s13.43-30 30-30h155.937c3.797-17.102 102.625-461.836 108.312-487.422-31.883-13.859-54.25-45.648-54.25-82.578 0-49.625 40.375-90 90-90h544c16.57 0 30 13.43 30 30s-13.43 30-30 30h-544c-16.539 0-30 13.461-30 30 0 16.516 13.414 29.953 29.922 29.992zM954.226 718l-102.859-360h-497.304l-80 360zM300 88c0-49.625 40.375-90 90-90s90 40.375 90 90-40.375 90-90 90-90-40.375-90-90zM390 118c16.539 0 30-13.461 30-30s-13.461-30-30-30-30 13.461-30 30 13.461 30 30 30zM724 88c0-49.625 40.375-90 90-90s90 40.375 90 90-40.375 90-90 90-90-40.375-90-90zM814 118c16.539 0 30-13.461 30-30s-13.461-30-30-30-30 13.461-30 30 13.461 30 30 30z" />
<glyph unicode="&#xe951;" glyph-name="sign-in-alt-solid" d="M832 64h-168c-13.2 0-24 10.8-24 24v80c0 13.2 10.8 24 24 24h168c35.4 0 64 28.6 64 64v384c0 35.4-28.6 64-64 64h-168c-13.2 0-24 10.8-24 24v80c0 13.2 10.8 24 24 24h168c106 0 192-86 192-192v-384c0-106-86-192-192-192zM738 466l-336 336c-30 30-82 9-82-34v-192h-272c-26.6 0-48-21.4-48-48v-192c0-26.6 21.4-48 48-48h272v-192c0-43 52-64 82-34l336 336c18.6 18.8 18.6 49.2 0 68z" />
<glyph unicode="&#xe952;" glyph-name="sign-out-alt-solid" d="M994 414l-336-336c-30-30-82-9-82 34v192h-272c-26.6 0-48 21.4-48 48v192c0 26.6 21.4 48 48 48h272v192c0 42.8 51.8 64 82 34l336-336c18.6-18.8 18.6-49.2 0-68zM384 88v80c0 13.2-10.8 24-24 24h-168c-35.4 0-64 28.6-64 64v384c0 35.4 28.6 64 64 64h168c13.2 0 24 10.8 24 24v80c0 13.2-10.8 24-24 24h-168c-106 0-192-86-192-192v-384c0-106 86-192 192-192h168c13.2 0 24 10.8 24 24z" />
<glyph unicode="&#xe953;" glyph-name="size" d="M1024 960h-802.656v-315.086h161.852v85.391h125.578v-621.18h-85.922v-173.125h399.641v173.125h-85.922v621.18h125.578v-85.391h161.852zM0 328.070h60v42.578h92.414v-372.297h-59.602v-60h277.219v60h-60.641v372.297h92.414v-42.578h60l-0.008 200.648h-461.797z" />
<glyph unicode="&#xe954;" glyph-name="skyatlas-brands" horiz-adv-x="1280" d="M1280 301.4c0-131.8-105-228.8-235-228.8-331.8 0-393.2 499.4-719.4 499.4-293.8 0-294.2-424.4 11.2-424.4 85 0 181.8 35.6 250.6 85 11.2 8.2 33.8 32.6 45.6 32.6s21.8-10 21.8-21.8c0-15.6-26.2-38.2-37.4-48.2-81.8-71.2-200.6-122.4-309.4-122.4-166.8-0.2-308 118-308 289.8s135 298.2 305.6 298.2c370.6 0 445-491.8 723.8-491.8 199.8 0 189.6 279.4 6.8 279.4-35 0-70-23.2-93.8-23.2-16.8 0-31.8 14.4-31.8 31.2 0 23.2 10.6 47.4 10.6 72.6 0 133.2-101.8 229.4-233.8 229.4-106.2 0-160-73.8-177.6-73.8-12.4 0-22.4 10-22.4 22.4 0 11.2 8.2 20.6 15.6 28.8 50.6 57.6 129.4 87.4 205.6 87.4 158.8 0 278.2-116.8 278.2-275.6 0-13.8-0.6-27.4-2.4-41.2 23.8 6.2 48.2 9.4 71.8 9.4 121.4 0 223.8-90.6 223.8-214.4z" />
<glyph unicode="&#xe955;" glyph-name="smartphone" d="M685.896 960h-345.937c-58.812 0-108.784-47.954-108.784-106.751v-810.621c0-58.796 48.914-106.629 107.727-106.629l346.506 0.374c58.804 0 106.913 47.841 106.913 106.645l0.504 810.287c-0.008 59.008-47.881 106.694-106.929 106.694zM462.952 895.998h100.366c8.817 0 15.998-7.157 15.998-15.998s-7.182-15.998-15.998-15.998h-100.366c-8.841 0-15.998 7.157-15.998 15.998s7.157 15.998 15.998 15.998zM402.643 890.907c5.929 5.921 16.722 6.002 22.643 0 2.969-2.961 4.725-7.117 4.725-11.362 0-4.164-1.757-8.312-4.725-11.281-2.952-2.969-7.125-4.717-11.281-4.717-4.237 0-8.312 1.749-11.362 4.717-2.952 2.961-4.636 7.117-4.636 11.281-0.008 4.246 1.684 8.402 4.636 11.362zM509.906-32.288c-26.401 0-47.873 21.488-47.873 47.881 0 26.401 21.472 47.881 47.873 47.881s47.873-21.48 47.873-47.881c0-26.393-21.48-47.881-47.873-47.881zM743.163 96.016h-455.99v711.979h455.99v-711.979z" />
<glyph unicode="&#xe956;" glyph-name="sound" d="M30 228.854h156.918l336.676-185.342c37.792-20.802 84.026 6.532 84.026 49.66v709.654c0 43.106-46.214 70.474-84.026 49.66l-336.676-185.342h-156.918c-16.568 0-30-13.432-30-30v-378.29c0-16.568 13.432-30 30-30zM547.62 797.222v-698.444l-322.99 177.808v342.828zM60 607.144h104.63v-318.29h-104.63zM849.924 765.798c-11.714-11.716-11.712-30.712 0.006-42.426 73.56-73.538 114.070-171.332 114.070-275.364 0-104.030-40.51-201.824-114.070-275.364-18.76-18.754-5.542-51.226 21.21-51.226 8.45 0 16.084 3.496 21.536 9.12 84.69 84.838 131.324 197.564 131.324 317.47 0 120.062-46.754 232.922-131.65 317.796-11.716 11.716-30.712 11.712-42.426-0.006zM765.084 257.468c-11.714-11.718-11.71-30.712 0.008-42.426 11.714-11.712 30.712-11.712 42.426 0.008 62.218 62.24 96.482 144.97 96.482 232.95s-34.264 170.708-96.484 232.95c-11.714 11.718-30.708 11.722-42.426 0.008s-11.722-30.708-0.008-42.426c50.892-50.91 78.918-118.576 78.918-190.532s-28.026-139.622-78.916-190.532zM680.22 299.912c11.712-11.718 30.706-11.726 42.426-0.012 39.564 39.54 61.354 92.136 61.354 148.1s-21.79 108.56-61.352 148.1c-11.72 11.712-30.714 11.706-42.426-0.012-11.712-11.72-11.706-30.714 0.012-42.426 28.224-28.208 43.766-65.734 43.766-105.662s-15.542-77.454-43.766-105.66c-11.72-11.712-11.726-30.708-0.014-42.428z" />
<glyph unicode="&#xe957;" glyph-name="spinner-solid" d="M608 864c0-53.020-42.98-96-96-96s-96 42.98-96 96 42.98 96 96 96 96-42.98 96-96zM512 128c-53.020 0-96-42.98-96-96s42.98-96 96-96 96 42.98 96 96-42.98 96-96 96zM928 544c-53.020 0-96-42.98-96-96s42.98-96 96-96 96 42.98 96 96-42.98 96-96 96zM192 448c0 53.020-42.98 96-96 96s-96-42.98-96-96 42.98-96 96-96 96 42.98 96 96zM217.844 249.844c-53.020 0-96-42.98-96-96s42.98-96 96-96 96 42.98 96 96c0 53.018-42.982 96-96 96zM806.156 249.844c-53.020 0-96-42.98-96-96s42.98-96 96-96 96 42.98 96 96c0 53.018-42.98 96-96 96zM217.844 838.156c-53.020 0-96-42.98-96-96s42.98-96 96-96 96 42.98 96 96-42.982 96-96 96z" />
<glyph unicode="&#xe958;" glyph-name="star" d="M1021.322 567.236c-6.742 20.735-25.133 35.415-46.805 37.376l-295.599 26.836-116.822 273.505c-8.625 20.094-28.25 33.063-50.095 33.063s-41.477-12.969-50.048-33.063l-116.822-273.505-295.646-26.836c-21.672-2-40.024-16.68-46.805-37.376-6.742-20.735-0.516-43.477 15.875-57.853l223.449-195.933-65.884-290.177c-4.82-21.336 3.461-43.399 21.164-56.196 9.516-6.914 20.696-10.367 31.915-10.367 9.641 0 19.289 2.563 27.907 7.719l254.895 152.409 254.848-152.409c18.696-11.172 42.204-10.149 59.868 2.648 17.703 12.797 25.985 34.86 21.164 56.196l-65.884 290.177 223.449 195.933c16.383 14.375 22.618 37.071 15.875 57.853z" />
<glyph unicode="&#xe959;" glyph-name="tasks-solid" d="M279.22 889c-4.346 4.361-10.358 7.059-17 7.059s-12.654-2.698-16.999-7.058l-0.001-0.001-127.36-126.62-45.4 44.24c-4.346 4.361-10.358 7.059-17 7.059s-12.654-2.698-16.999-7.058l-0.001-0.001-31.4-31.44c-4.361-4.346-7.059-10.358-7.059-17s2.698-12.654 7.058-16.999l95.181-94.801c4.575-4.355 10.779-7.034 17.61-7.034s13.035 2.679 17.621 7.044l-0.011-0.010 31.18 31.24 144.4 144.38c4.372 4.375 7.075 10.417 7.075 17.091 0 6.584-2.631 12.553-6.9 16.913l0.004-0.004zM279.22 570.62c-4.346 4.361-10.358 7.059-17 7.059s-12.654-2.698-16.999-7.058l-127.361-127.441-45.4 44.2c-4.346 4.361-10.358 7.059-17 7.059s-12.654-2.698-16.999-7.058l-31.401-31.381c-4.361-4.346-7.059-10.358-7.059-17s2.698-12.654 7.058-16.999l94.941-95.001c4.572-4.354 10.773-7.032 17.6-7.032s13.028 2.679 17.61 7.042l175.79 175.81c4.355 4.345 7.050 10.353 7.050 16.991 0 6.548-2.622 12.483-6.873 16.813l0.004-0.004zM128 224c-52.98 0-97.18-43-97.18-96s44.24-96 97.18-96c53.019 0 96 42.981 96 96s-42.981 96-96 96v0zM992 192h-576c-17.673 0-32-14.327-32-32v0-64c0-17.673 14.327-32 32-32v0h576c17.673 0 32 14.327 32 32v0 64c0 17.673-14.327 32-32 32v0zM992 832h-576c-17.673 0-32-14.327-32-32v0-64c0-17.673 14.327-32 32-32v0h576c17.673 0 32 14.327 32 32v0 64c0 17.673-14.327 32-32 32v0zM992 512h-576c-17.673 0-32-14.327-32-32v0-64c0-17.673 14.327-32 32-32v0h576c17.673 0 32 14.327 32 32v0 64c0 17.673-14.327 32-32 32v0z" />
<glyph unicode="&#xe95a;" glyph-name="text-font" d="M405.932 736.609c-10.331 33.426-41.273 56.218-76.276 56.218h-86.669c-35.096 0-66.116-22.94-76.379-56.538l-163.248-534.21c-7.12-23.211-2.796-48.399 11.675-67.901 14.43-19.496 37.25-31.008 61.522-31.008 34.402 0 64.568 22.94 73.772 56.065l33.563 120.96h197.477l36.144-120.204c10.133-33.732 41.178-56.821 76.463-56.821 25.398 0 49.263 12.065 64.298 32.487 15.067 20.439 19.498 46.803 11.988 71.034l-164.331 529.917zM206.411 396.826l40.878 146.346c11.239 39.906 21.516 92.061 31.777 133.010h1.952c10.265-40.949 22.616-92.094 34.838-133.010l42.992-146.346h-152.438zM1021.74 212.115v142.451c0 96.327-43.603 176.775-180.228 176.775-50.72 0-92.903-9.299-123.653-20.253-20.435-7.287-31.678-29.117-25.741-49.977l0.407-1.372c3.118-10.977 10.641-20.19 20.771-25.491 10.102-5.306 21.917-6.243 32.751-2.586 22.392 7.555 48.068 12.552 72.868 12.552 62.865 0 74.612-31.014 74.612-52.794v-5.888c-144.99 0.856-240.503-50.244-240.503-156.668 0-65.379 49.433-125.675 132.432-125.675 48.568 0 90.418 17.62 117.27 50.293h2.472l3.294-17.924c2.491-13.406 14.165-23.157 27.823-23.157h59.367c7.892 0 15.41 3.275 20.749 9.047 5.37 5.772 8.088 13.526 7.483 21.376-1.542 20.173-2.175 44.389-2.175 69.292zM897.656 261.55c0-7.531-0.803-15.088-2.514-21.781-8.364-25.978-34.338-46.921-66.188-46.921-28.463 0-50.273 15.911-50.273 48.582 0 49.437 51.981 65.346 118.974 64.527v-44.407z" />
<glyph unicode="&#xe95b;" glyph-name="thumbs-down-regular" d="M932.54 509.38c9.348 45.294 1.728 89.076-17.98 125.98 5.916 47.736-8.042 97.13-34.68 133.98-1.908 111.814-71.646 190.66-225.88 190.66-14 0-30-0.020-44.44-0.020-207.17 0-271.566-79.98-353.56-79.98h-21.69c-11.28 9.95-26.084 16-42.31 16h-128c-35.346 0-64-28.654-64-64v-480c0-35.346 28.654-64 64-64h128c23.684 0 44.35 12.876 55.416 32h14.104c38.292-33.906 92.026-121.306 137.52-166.8 27.334-27.334 20.306-217.2 143.52-217.2 115.16 0 190.54 63.872 190.54 209.46 0 36.82-7.86 67.46-17.7 93.080h72.96c97.204 0 171.64 83.13 171.64 171.16 0 38.3-9.92 69.98-27.46 99.68zM128 368c-26.51 0-48 21.49-48 48s21.49 48 48 48 48-21.49 48-48-21.49-48-48-48zM788.36 334.54h-207.98c0-75.64 56.72-110.74 56.72-189.080 0-47.5 0-113.46-94.54-113.46-37.82 37.82-18.92 132.36-75.64 189.080-53.12 53.14-132.36 194.92-189.080 194.92h-21.84v372.34c107.222 0 200.002 75.64 343.28 75.64h75.64c71.024 0 121.64-34.24 106.24-131.8 30.4-16.32 53-72.88 27.88-115.14 43.162-40.768 37.398-102.13 10.42-131.24 18.9 0 44.72-37.82 44.54-75.62-0.18-37.82-33.42-75.64-75.64-75.64z" />
<glyph unicode="&#xe95c;" glyph-name="thumbs-up-solid" d="M208 512h-160c-26.51 0-48-21.49-48-48v-480c0-26.51 21.49-48 48-48h160c26.51 0 48 21.49 48 48v480c0 26.51-21.49 48-48 48zM128 16c-26.51 0-48 21.49-48 48s21.49 48 48 48 48-21.49 48-48-21.49-48-48-48zM768 797.096c0-84.832-51.94-132.416-66.554-189.096h203.446c66.794 0 118.794-55.492 119.106-116.196 0.168-35.876-15.092-74.498-38.878-98.394l-0.22-0.22c19.672-46.674 16.474-112.074-18.616-158.938 17.362-51.79-0.138-115.408-32.764-149.514 8.596-35.196 4.488-65.15-12.296-89.264-40.82-58.648-141.992-59.474-227.546-59.474l-5.69 0.002c-96.574 0.034-175.612 35.196-239.12 63.45-31.914 14.198-73.642 31.774-105.302 32.356-13.080 0.24-23.566 10.914-23.566 23.996v427.54c0 6.4 2.564 12.542 7.116 17.042 79.228 78.288 113.296 161.174 178.234 226.222 29.608 29.664 40.376 74.472 50.786 117.804 8.894 37.002 27.498 115.588 67.864 115.588 48 0 144-16 144-162.904z" />
<glyph unicode="&#xe95d;" glyph-name="tint-solid" horiz-adv-x="704" d="M410.44 915.82c-15.88 57.56-98.88 60.24-116.88 0-93.54-315.52-293.56-401.26-293.56-623.64 0-196.88 157.44-356.18 352-356.18s352 159.3 352 356.18c0 223.5-199.58 306.68-293.56 623.64zM352 64c-123.5 0-224 100.5-224 224 0 17.68 14.32 32 32 32s32-14.32 32-32c0-88.22 71.78-160 160-160 17.68 0 32-14.32 32-32s-14.32-32-32-32z" />
<glyph unicode="&#xe95e;" glyph-name="toggle" d="M0 448c0-164.693 134.016-298.667 298.667-298.667h426.667c164.651 0 298.667 133.973 298.667 298.667s-134.016 298.667-298.667 298.667h-426.667c-164.651 0-298.667-133.973-298.667-298.667zM554.667 448c0 94.123 76.544 170.667 170.667 170.667s170.667-76.544 170.667-170.667-76.544-170.667-170.667-170.667-170.667 76.544-170.667 170.667z" />
<glyph unicode="&#xe95f;" d="M533.334 960h-512c-11.782 0-21.334-9.552-21.334-21.334v-512c0-11.782 9.552-21.334 21.334-21.334h469.334c11.782 0 21.334 9.552 21.334 21.334v21.334h21.334c11.782 0 21.334 9.552 21.334 21.334v469.332c-0.004 11.782-9.554 21.334-21.336 21.334z" />
<glyph unicode="&#xe960;" d="M490.666 490.666h512c11.782 0 21.334-9.552 21.334-21.334v-512c0-11.782-9.552-21.334-21.334-21.334h-512c-11.782 0-21.334 9.552-21.334 21.334v512c0.002 11.784 9.552 21.334 21.334 21.334z" />
<glyph unicode="&#xe961;" d="M405.334 746.666h-256c-11.782 0-21.334 9.552-21.334 21.334s9.552 21.334 21.334 21.334h256c11.782 0 21.334-9.552 21.334-21.334-0.002-11.782-9.552-21.334-21.334-21.334z" />
<glyph unicode="&#xe962;" d="M277.334 746.666c-11.782 0-21.334 9.552-21.334 21.334v85.334c0 11.782 9.552 21.334 21.334 21.334s21.334-9.552 21.334-21.334v-85.334c-0.002-11.782-9.552-21.334-21.334-21.334z" />
<glyph unicode="&#xe963;" d="M362.666 490.666c-5.322 0.004-10.45 1.998-14.378 5.59-18.176 16.554-177.622 165.078-177.622 271.744 0 11.782 9.552 21.334 21.334 21.334s21.334-9.552 21.334-21.334c0-74.582 118.186-198.698 163.712-240.256 8.696-7.95 9.298-21.444 1.348-30.14-4.038-4.416-9.744-6.932-15.728-6.938z" />
<glyph unicode="&#xe964;" d="M192 490.666c-11.782 0.010-21.326 9.568-21.316 21.35 0.004 5.984 2.522 11.69 6.938 15.726 45.526 41.558 163.712 165.674 163.712 240.256 0 11.782 9.552 21.334 21.334 21.334 11.78 0.002 21.332-9.55 21.332-21.332 0-106.666-159.446-255.19-177.622-271.744-3.928-3.592-9.056-5.586-14.378-5.59z" />
<glyph unicode="&#xe965;" d="M874.666 21.334c-8.886 0-16.84 5.508-19.968 13.824l-108.032 288.086-108.032-288.086c-4.156-11.024-16.464-16.592-27.488-12.434-11.010 4.152-16.58 16.436-12.448 27.454l128 341.334c5.342 11.028 18.61 15.638 29.638 10.298 4.494-2.176 8.122-5.804 10.298-10.298l128-341.334c4.148-11.028-1.43-23.33-12.458-27.478-2.396-0.922-4.942-1.384-7.51-1.366z" />
<glyph unicode="&#xe966;" d="M832 106.666h-170.666c-11.782 0-21.334 9.552-21.334 21.334s9.552 21.334 21.334 21.334h170.666c11.782 0 21.334-9.552 21.334-21.334s-9.552-21.334-21.334-21.334z" />
<glyph unicode="&#xe967;" d="M917.334 533.334c-11.782 0-21.334 9.552-21.334 21.334-0.188 153.088-124.244 277.144-277.334 277.332-11.782 0-21.334 9.552-21.334 21.334s9.552 21.334 21.334 21.334c176.654-0.188 319.812-143.346 320-320 0-11.784-9.55-21.334-21.332-21.334z" />
<glyph unicode="&#xe968;" d="M917.334 533.334c-5.662-0.010-11.096 2.23-15.104 6.23l-85.334 85.334c-8.186 8.474-7.95 21.98 0.524 30.166 8.268 7.986 21.374 7.986 29.642 0l67.968-67.968 49.238 65.706c7.058 9.434 20.428 11.36 29.862 4.302s11.36-20.428 4.302-29.862c-0.010-0.014-0.020-0.026-0.030-0.040l-64-85.334c-3.704-4.972-9.388-8.088-15.574-8.534h-1.494z" />
<glyph unicode="&#xe969;" d="M405.334 21.334c-176.654 0.188-319.812 143.346-320 320 0 11.782 9.552 21.334 21.334 21.334s21.332-9.552 21.332-21.334c0.188-153.090 124.244-277.146 277.334-277.334 11.782 0 21.334-9.552 21.334-21.334-0.002-11.782-9.552-21.332-21.334-21.332z" />
<glyph unicode="&#xe96a;" d="M42.666 234.666c-11.782 0-21.334 9.552-21.334 21.334 0 4.616 1.498 9.108 4.266 12.8l64 85.334c7.058 9.434 20.426 11.362 29.862 4.304 0.816-0.61 1.588-1.28 2.31-2l85.334-85.334c8.474-8.186 8.71-21.69 0.524-30.166-8.186-8.474-21.69-8.708-30.166-0.524-0.178 0.172-0.352 0.346-0.524 0.524l-67.968 67.926-49.236-65.664c-4.030-5.372-10.352-8.534-17.068-8.534z" />
<glyph unicode="&#xe96b;" glyph-name="twitter" d="M0 960v-1024h1024v1024h-1024zM793.884 592.578c0.277-6.241 0.419-12.515 0.419-18.815 0-192.204-146.29-413.822-413.815-413.822-82.136 0-158.587 24.074-222.951 65.349 11.379-1.353 22.953-2.041 34.697-2.041 68.142 0 130.854 23.25 180.634 62.268-63.646 1.168-117.362 43.22-135.872 101.005 8.885-1.704 17.998-2.617 27.369-2.617 13.265 0 26.115 1.787 38.32 5.104-66.533 13.366-116.671 72.146-116.671 142.613 0 0.614 0 1.224 0.014 1.832 19.607-10.893 42.031-17.437 65.876-18.193-39.029 26.082-64.699 70.602-64.699 121.057 0 26.658 7.173 51.639 19.695 73.125 71.732-87.999 178.903-145.899 299.78-151.971-2.482 10.65-3.774 21.752-3.774 33.148 0 80.318 65.126 145.437 145.444 145.437 41.835 0 79.636-17.66 106.165-45.925 33.126 6.515 64.255 18.626 92.358 35.291-10.857-33.965-33.918-62.462-63.949-80.466 29.424 3.518 57.452 11.338 83.536 22.906-19.494-29.165-44.151-54.783-72.573-75.285z" />
<glyph unicode="&#xe96c;" glyph-name="up-arrow" d="M932.431 548.43l-405.33 405.33c-8.32 8.32-21.846 8.32-30.166 0l-405.328-405.33c-43.606-43.606-43.606-114.559 0-158.164s114.559-43.606 158.164 0l155.56 155.56v-503.163c0-58.793 47.872-106.665 106.665-106.665s106.665 47.872 106.665 106.665v503.165l155.56-155.56c43.606-43.606 114.559-43.606 158.164 0 43.606 43.562 43.606 114.559 0.044 158.162z" />
<glyph unicode="&#xe96d;" glyph-name="user" d="M511.991 960c-282.76 0-511.988-229.235-511.988-511.995 0-282.753 229.228-512.005 511.988-512.005s512.005 229.252 512.005 512.005c0 282.767-229.245 511.995-512.005 511.995zM513.551 206.455v0.007h-221.828c0 159.937 140.467 159.899 171.638 201.72l3.567 19.070c-43.794 22.194-74.708 75.702-74.708 138.282 0 82.446 53.631 149.294 119.772 149.294s119.772-66.847 119.772-149.294c0-62.048-30.365-115.222-73.575-137.767l4.062-21.671c34.199-39.793 169.993-42.387 169.993-199.641h-218.691z" />
<glyph unicode="&#xe96e;" glyph-name="video-player" d="M1024 846.604c0 45.547-36.922 82.47-82.47 82.47h-859.060c-45.547 0-82.47-36.922-82.47-82.47v-797.208c0-45.547 36.922-82.47 82.47-82.47h859.060c45.547 0 82.47 36.922 82.47 82.47v797.208zM312.698 825.987h147.758v-116.832h-147.758v116.832zM209.611 70.013h-106.523v116.832h106.523v-116.832zM209.611 709.154h-106.523v116.832h106.523v-116.832zM460.456 70.013h-147.758v116.832h147.758v-116.832zM422.658 352.789v190.426c0 28.349 20.164 38.836 43.881 23.308l138.264-90.277c23.717-15.528 23.909-40.939 0.192-56.471l-138.553-90.294c-23.717-15.532-43.785-5.041-43.785 23.308zM711.302 70.013h-147.758v116.832h147.758v-116.832zM711.302 709.154h-147.758v116.832h147.758v-116.832zM920.913 70.013h-106.523v116.832h106.523v-116.832zM920.913 709.154h-106.523v116.832h106.523v-116.832z" />
<glyph unicode="&#xe96f;" glyph-name="water-solid" horiz-adv-x="1152" d="M1124.2 192.2c-43 4.8-84.2 21-115.8 45.8-28.2 22.2-68.4 22.6-96.4 0-75.8-60.8-214.4-60.8-291.4 3-27 22.4-66 18.2-93.4-3.6-76-60.2-213.8-60-290.4 3.4-27 22.4-66.6 17.8-94.2-4-31-24.4-72-40.2-115.4-44.8-15.8-1.6-27.2-15.6-27.2-31.4v-64.4c0-18.2 15.2-33.6 33.4-32 57.6 5 112.2 22.8 158.8 51.8 113-69.2 274-68.2 384 0 113-69.2 274-68.2 384 0 46.6-28.4 101.8-46.6 158.2-51.6 18.2-1.6 33.4 13.8 33.4 32v63.2c0.2 16-11.4 30.8-27.6 32.6zM1124.2 480.2c-43 4.8-84.2 21-115.8 45.8-28.2 22.2-68.4 22.6-96.4 0-75.8-60.8-214.4-60.8-291.4 3-27 22.4-66 18.2-93.4-3.6-76-60.2-213.8-60-290.4 3.4-27 22.4-66.6 17.8-94.2-4-31-24.4-72-40.2-115.4-44.8-15.8-1.6-27.2-15.6-27.2-31.4v-64.4c0-18.2 15.2-33.6 33.4-32 57.6 5 112.2 22.8 158.8 51.8 113-69.2 274-68.2 384 0 113-69.2 274-68.2 384 0 46.6-28.4 101.8-46.6 158.2-51.6 18.2-1.6 33.4 13.8 33.4 32v63.2c0.2 16-11.4 30.8-27.6 32.6zM1124.2 768.2c-43 5-84.2 21-115.8 45.8-28.2 22.2-68.4 22.6-96.4 0-75.8-60.8-214.4-60.8-291.4 3-27 22.4-66 18.2-93.4-3.6-76-60.2-213.8-60-290.4 3.4-27 22.4-66.6 17.8-94.2-4-31-24.4-72-40.2-115.4-44.8-15.8-1.6-27.2-15.6-27.2-31.4v-64.4c0-18.2 15.2-33.6 33.4-32 57.6 5 112.2 22.8 158.8 51.8 113-69.2 274-68.2 384 0 113-69.2 274-68.2 384 0 46.6-28.4 101.8-46.6 158.2-51.6 18.2-1.6 33.4 13.8 33.4 32v63.2c0.2 16-11.4 30.8-27.6 32.6z" />
<glyph unicode="&#xe970;" glyph-name="website" d="M746.667 490.667c-152.917 0-277.333-124.416-277.333-277.333s124.416-277.333 277.333-277.333 277.333 124.416 277.333 277.333-124.416 277.333-277.333 277.333zM930.304 320h-76.971v76.971c31.957-18.603 58.368-45.013 76.971-76.971zM955.691 170.667h-102.357v85.333h102.357c5.589-27.349 5.931-56.32 0-85.333zM537.643 256h102.357v-85.333h-102.357c-5.589 27.349-5.931 56.32 0 85.333zM704 256h85.333v-85.333h-85.333zM789.333 422.357v-102.357h-85.333v102.357c27.349 5.589 56.32 5.931 85.333 0zM640 396.971v-76.971h-76.971c18.603 31.957 45.013 58.368 76.971 76.971zM563.029 106.667h76.971v-76.971c-31.957 18.603-58.368 45.013-76.971 76.971zM704 4.309v102.357h85.333v-102.357c-27.349-5.589-56.32-5.931-85.333 0zM853.333 29.696v76.971h76.971c-18.603-31.957-45.013-58.368-76.971-76.971zM810.667 960h-682.667c-70.699 0-128-57.301-128-128s57.301-128 128-128h682.667c70.699 0 128 57.301 128 128s-57.301 128-128 128zM128 789.333c-23.552 0-42.667 19.115-42.667 42.667s19.115 42.667 42.667 42.667 42.667-19.115 42.667-42.667-19.115-42.667-42.667-42.667zM298.667 789.333c-23.552 0-42.667 19.115-42.667 42.667s19.115 42.667 42.667 42.667 42.667-19.115 42.667-42.667-19.115-42.667-42.667-42.667zM810.667 618.667h-682.667c-70.827 0-128-57.173-128-128s57.173-128 128-128h288.427c56.747 125.867 183.467 213.333 330.24 213.333 68.267 0 132.693-19.2 187.307-52.48-14.080 55.040-64 95.147-123.307 95.147zM128 448c-23.467 0-42.667 19.2-42.667 42.667s19.2 42.667 42.667 42.667 42.667-19.2 42.667-42.667-19.2-42.667-42.667-42.667zM298.667 448c-23.467 0-42.667 19.2-42.667 42.667s19.2 42.667 42.667 42.667 42.667-19.2 42.667-42.667-19.2-42.667-42.667-42.667zM384 213.333c0 21.76 2.133 43.093 5.973 64h-261.973c-70.827 0-128-57.173-128-128s57.173-128 128-128h311.040c-34.987 55.467-55.040 121.6-55.040 192zM128 106.667c-23.467 0-42.667 19.2-42.667 42.667s19.2 42.667 42.667 42.667 42.667-19.2 42.667-42.667-19.2-42.667-42.667-42.667zM298.667 106.667c-23.467 0-42.667 19.2-42.667 42.667s19.2 42.667 42.667 42.667 42.667-19.2 42.667-42.667-19.2-42.667-42.667-42.667z" />
<glyph unicode="&#xe971;" glyph-name="whatsapp" d="M512.128 960h-0.256c-282.304 0-511.872-229.632-511.872-512 0-112 36.096-215.808 97.472-300.096l-63.808-190.208 196.8 62.912c80.96-53.632 177.536-84.608 281.664-84.608 282.304 0 511.872 229.696 511.872 512s-229.568 512-511.872 512zM810.048 236.992c-12.352-34.88-61.376-63.808-100.48-72.256-26.752-5.696-61.696-10.24-179.328 38.528-150.464 62.336-247.36 215.232-254.912 225.152-7.232 9.92-60.8 80.96-60.8 154.432s37.312 109.248 52.352 124.608c12.352 12.608 32.768 18.368 52.352 18.368 6.336 0 12.032-0.32 17.152-0.576 15.040-0.64 22.592-1.536 32.512-25.28 12.352-29.76 42.432-103.232 46.016-110.784 3.648-7.552 7.296-17.792 2.176-27.712-4.8-10.24-9.024-14.784-16.576-23.488s-14.72-15.36-22.272-24.704c-6.912-8.128-14.72-16.832-6.016-31.872 8.704-14.72 38.784-63.808 83.072-103.232 57.152-50.88 103.488-67.136 120.064-74.048 12.352-5.12 27.072-3.904 36.096 5.696 11.456 12.352 25.6 32.832 40 52.992 10.24 14.464 23.168 16.256 36.736 11.136 13.824-4.8 86.976-40.96 102.016-48.448 15.040-7.552 24.96-11.136 28.608-17.472 3.584-6.336 3.584-36.096-8.768-71.040z" />
<glyph unicode="&#xe972;" glyph-name="youtube-brands" horiz-adv-x="1152" d="M1099.31 711.834c-12.562 47.3-49.574 84.552-96.568 97.194-85.18 22.972-426.742 22.972-426.742 22.972s-341.56 0-426.742-22.972c-46.994-12.644-84.006-49.894-96.568-97.194-22.824-85.734-22.824-264.61-22.824-264.61s0-178.876 22.824-264.61c12.562-47.3 49.574-83 96.568-95.642 85.182-22.972 426.742-22.972 426.742-22.972s341.56 0 426.742 22.972c46.994 12.642 84.006 48.342 96.568 95.642 22.824 85.734 22.824 264.61 22.824 264.61s0 178.876-22.824 264.61zM464.29 284.818v324.812l285.478-162.41-285.478-162.402z" />
<glyph unicode="&#xe973;" glyph-name="zoom" d="M908.609 844.705c-152.862 153.286-401.044 153.631-554.33 0.769-147.905-147.495-154.163-385.060-14.232-540.139l-29.934-29.934c-24.185 24.187-63.398 24.192-87.585 0.008-0.003-0.003-0.005-0.005-0.008-0.008l-204.377-204.377c-24.187-24.185-24.192-63.398-0.008-87.585 0.003-0.003 0.005-0.005 0.008-0.008l29.191-29.191c24.185-24.177 63.388-24.177 87.573 0l204.377 204.377c24.187 24.185 24.192 63.398 0.008 87.585-0.003 0.003-0.005 0.005-0.008 0.008l29.934 29.934c160.612-145.147 408.476-132.608 553.623 28.001 140.2 155.138 133.937 393.013-14.232 540.56zM310.114 187.828l-204.377-204.377c-8.062-8.059-21.129-8.059-29.191 0l-29.191 29.212c-8.046 8.059-8.046 21.111 0 29.17l204.377 204.377c8.165 7.806 21.026 7.806 29.191 0l29.191-29.212c8.046-8.059 8.046-21.111 0-29.17zM879.439 319.187c-137.057-137.052-359.268-137.049-496.319 0.008s-137.049 359.268 0.008 496.319c137.054 137.049 359.258 137.049 496.312 0 136.832-137.15 136.832-359.178 0-496.327zM850.228 786.323v0l-29.191-29.191c104.627-104.883 104.627-274.66 0-379.543l29.191-29.191c120.758 121.001 120.758 316.924 0 437.925z" />
</font>
</defs>
</svg>
