<?xml version="1.0" encoding="iso-8859-1"?>
<!-- Generator: Adobe Illustrator 19.0.0, SVG Export Plug-In . SVG Version: 6.00 Build 0)  -->
<svg version="1.1" id="Capa_1" xmlns="http://www.w3.org/2000/svg" xmlns:xlink="http://www.w3.org/1999/xlink" x="0px" y="0px"
	 viewBox="0 0 325 325" style="enable-background:new 0 0 325 325;" xml:space="preserve">
<g id="XMLID_497_">
	<path id="XMLID_498_" d="M202.5,230.001l95,0.001V80c0-13.807-11.193-25-25-25h-65V30c0-16.568-13.432-30-30-30h-30
		c-16.568,0-30,13.432-30,30v25h-65c-13.807,0-25,11.193-25,25v220c0,13.807,11.193,25,25,25h150V230.001z M177.5,90h-30V30h30V90z
		 M57.5,200h105v30h-105V200z M267.5,170h-210v-30h210V170z"/>
	<path id="XMLID_504_" d="M292.879,260.002H232.5v60.493C232.5,320.495,292.081,261.127,292.879,260.002"/>
</g>
<g>
</g>
<g>
</g>
<g>
</g>
<g>
</g>
<g>
</g>
<g>
</g>
<g>
</g>
<g>
</g>
<g>
</g>
<g>
</g>
<g>
</g>
<g>
</g>
<g>
</g>
<g>
</g>
<g>
</g>
</svg>
