<svg id="bold_1_" enable-background="new 0 0 24 24" height="512" viewBox="0 0 24 24" width="512" xmlns="http://www.w3.org/2000/svg"><path d="m3 11c-.275 0-.55-.113-.747-.335-.367-.413-.33-1.045.083-1.412l4.5-4c.214-.191.5-.28.784-.245l7.783.943 4.409-4.177c.401-.378 1.035-.363 1.413.039.38.401.363 1.034-.038 1.414l-4.75 4.5c-.216.205-.514.302-.808.267l-7.802-.947-4.163 3.701c-.19.169-.428.252-.664.252z"/><path d="m21.25 6c-.195 0-.387-.076-.53-.22l-3.5-3.5c-.215-.214-.278-.537-.163-.817.116-.28.389-.463.693-.463h3.5c.414 0 .75.336.75.75v3.5c0 .303-.183.577-.463.693-.093.038-.19.057-.287.057z"/><path d="m7 18.25v2.75h-6v-2.75c0-.69.56-1.25 1.25-1.25h3.5c.69 0 1.25.56 1.25 1.25z"/><path d="m15 12.25v8.75h-6v-8.75c0-.69.56-1.25 1.25-1.25h3.5c.69 0 1.25.56 1.25 1.25z"/><path d="m23 14.25v6.75h-6v-6.75c0-.69.56-1.25 1.25-1.25h3.5c.69 0 1.25.56 1.25 1.25z"/><path d="m23.25 24h-22.5c-.414 0-.75-.336-.75-.75s.336-.75.75-.75h22.5c.414 0 .75.336.75.75s-.336.75-.75.75z"/></svg>