<?xml version="1.0"?>
<svg xmlns="http://www.w3.org/2000/svg" id="Layer_1" data-name="Layer 1" viewBox="0 0 128 128" width="512" height="512"><title>SEARCH ENGINE</title><path d="M121.745,114.454,109.9,102.609a1.748,1.748,0,0,0-2.474,0l-.921.921-1.6-1.6a25.847,25.847,0,0,0-.878-34.521,50.191,50.191,0,0,0-5.243-37.478l0-.008c-.036-.062-.066-.127-.1-.189v0c-.027-.045-.052-.09-.083-.133A50.17,50.17,0,0,0,68.974,6.668h0A50.528,50.528,0,0,0,55.258,4.76c-.035,0-.068-.01-.1-.01s-.07.009-.105.011A50.448,50.448,0,0,0,41.34,6.667c-.046.014-.092.029-.138.046A50.386,50.386,0,0,0,4.75,55.15v0h0v0a50.4,50.4,0,0,0,36.594,48.488l.05.013h0a50.355,50.355,0,0,0,26.031.373,25.855,25.855,0,0,0,35.042.413L104.03,106l-1.414,1.413a1.751,1.751,0,0,0,0,2.475l11.845,11.845a5.15,5.15,0,1,0,7.284-7.283ZM42.832,100.408c-3.754-4.626-6.846-11.138-9.025-18.968H53.4v20.553A47.253,47.253,0,0,1,42.832,100.408ZM14.172,77.94A46.827,46.827,0,0,1,8.308,56.9h18.61a103.28,103.28,0,0,0,2.4,21.036Zm0-45.575H29.317a103.255,103.255,0,0,0-2.4,21.039H8.308A46.748,46.748,0,0,1,14.174,32.365ZM42.834,9.9A46.815,46.815,0,0,1,53.4,8.317V28.865h-19.6C35.987,21.036,39.079,14.524,42.834,9.9Zm24.647,0c3.754,4.631,6.845,11.141,9.021,18.963H56.9V8.317A46.872,46.872,0,0,1,67.481,9.9ZM96.126,32.365A46.765,46.765,0,0,1,102,53.4H83.386a103.558,103.558,0,0,0-2.394-21.039ZM79.885,53.4H56.9V32.365H77.4A101.165,101.165,0,0,1,79.885,53.4ZM53.4,32.365V53.4H30.419a100.943,100.943,0,0,1,2.492-21.039ZM30.419,56.9H53.4V77.94H32.91A100.965,100.965,0,0,1,30.419,56.9ZM56.9,81.44h2.617a25.813,25.813,0,0,0,5.206,19.629A47.031,47.031,0,0,1,56.9,102Zm3.377-3.5H56.9V56.9H79.885q-.024,1.437-.086,2.9A26.005,26.005,0,0,0,60.281,77.94ZM83.385,56.9H102a47,47,0,0,1-.929,7.814,25.783,25.783,0,0,0-15.9-5.475c-.622,0-1.236.03-1.847.073C83.352,58.5,83.373,57.7,83.385,56.9Zm10.6-28.039H80.142a63.852,63.852,0,0,0-7.014-17.039A46.6,46.6,0,0,1,93.986,28.865ZM37.18,11.83a63.912,63.912,0,0,0-7.012,17.035H16.317A46.607,46.607,0,0,1,37.18,11.83ZM16.314,81.44H30.167a63.936,63.936,0,0,0,7.02,17.05A46.642,46.642,0,0,1,16.314,81.44ZM62.75,85.162a22.419,22.419,0,1,1,22.419,22.419A22.444,22.444,0,0,1,62.75,85.162Zm56.521,34.1a1.69,1.69,0,0,1-2.334,0l-10.609-10.608,1.358-1.358c.019-.018.042-.031.061-.05s.032-.042.05-.061l.865-.865,10.609,10.608a1.651,1.651,0,0,1,0,2.334Z"/></svg>
