<svg id="Layer_1" enable-background="new 0 0 128 128" height="512" viewBox="0 0 128 128" width="512" xmlns="http://www.w3.org/2000/svg"><g><g fill="#e6e7e8"><path d="m11.89 44.913h96.639c.867 0 1.691-.375 2.262-1.028l11.83-13.57c.653-.75.653-1.879 0-2.629l-11.83-13.57c-.57-.653-1.395-1.028-2.262-1.028h-96.639c-1.654 0-3 1.346-3 3v25.826c0 1.653 1.346 2.999 3 2.999z"/><path d="m110.79 51.115c-.57-.653-1.395-1.028-2.262-1.028h-96.638c-1.654 0-3 1.346-3 3v25.826c0 1.654 1.346 3 3 3h96.639c.867 0 1.691-.375 2.262-1.028l11.83-13.57c.653-.75.653-1.879 0-2.629z"/><path d="m110.79 88.115c-.57-.653-1.395-1.028-2.262-1.028h-96.638c-1.654 0-3 1.346-3 3v25.826c0 1.654 1.346 3 3 3h96.639c.867 0 1.691-.375 2.262-1.028l11.83-13.57c.653-.75.653-1.879 0-2.629z"/></g><g><g><path d="m104.529 39.913h-96.639c-1.105 0-2-.895-2-2v-25.826c0-1.105.895-2 2-2h96.639c.578 0 1.128.25 1.508.686l11.829 13.57c.328.377.328.938 0 1.314l-11.829 13.57c-.38.436-.93.686-1.508.686z" fill="#fa759e"/><path d="m117.866 24.343-11.829-13.57c-.38-.436-.93-.686-1.508-.686h-3c.578 0 1.128.25 1.508.686l11.829 13.57c.328.377.328.938 0 1.314l-11.829 13.57c-.38.436-.93.686-1.508.686h3c.578 0 1.128-.25 1.508-.686l11.829-13.57c.328-.376.328-.937 0-1.314z" fill="#fff"/><path d="m33.89 10.087h-26c-1.105 0-2 .895-2 2v25.827c0 1.105.895 2 2 2h26z" fill="#0089ef"/><g><path d="m25.716 31.26c0 .882-.511 1.323-1.533 1.323h-7.182c-1.036 0-1.554-.441-1.554-1.323 0-.868.518-1.302 1.554-1.302h1.953v-8.588l-1.848 1.113c-.21.126-.42.189-.63.189-.35 0-.647-.147-.893-.441s-.367-.623-.367-.987c0-.49.217-.861.651-1.113l3.318-1.995c.49-.294.98-.441 1.47-.441.462 0 .84.144 1.134.431s.441.676.441 1.166v10.668h1.953c1.022-.001 1.533.433 1.533 1.3z" fill="#fff"/></g></g><g><path d="m104.529 76.913h-96.639c-1.105 0-2-.895-2-2v-25.826c0-1.105.895-2 2-2h96.639c.578 0 1.128.25 1.508.686l11.829 13.57c.328.377.328.938 0 1.314l-11.829 13.57c-.38.436-.93.686-1.508.686z" fill="#fa759e"/><path d="m33.89 47.087h-26c-1.105 0-2 .895-2 2v25.827c0 1.105.895 2 2 2h26z" fill="#0089ef"/><g><path d="m25.443 68.26c0 .882-.519 1.323-1.554 1.323h-7.812c-.434 0-.781-.129-1.04-.389-.259-.259-.389-.584-.389-.977 0-.504.203-.966.609-1.386l4.62-4.893c1.036-1.092 1.554-2.1 1.554-3.024 0-.574-.161-1.011-.483-1.312s-.791-.452-1.407-.452c-.532 0-1.022.091-1.47.273s-.966.448-1.554.798c-.238.14-.42.238-.546.294s-.273.084-.441.084c-.294 0-.546-.137-.756-.41s-.315-.591-.315-.956c0-.266.045-.486.137-.661.091-.175.241-.333.452-.473.63-.462 1.354-.83 2.173-1.103s1.641-.41 2.467-.41c.994 0 1.866.168 2.615.504s1.326.816 1.732 1.439.609 1.34.609 2.152c0 .854-.178 1.645-.535 2.373s-.956 1.54-1.796 2.436l-3.297 3.465h4.872c1.036.004 1.555.438 1.555 1.305z" fill="#fff"/></g></g><g><path d="m104.529 113.913h-96.639c-1.105 0-2-.895-2-2v-25.826c0-1.105.895-2 2-2h96.639c.578 0 1.128.25 1.508.686l11.829 13.57c.328.377.328.938 0 1.314l-11.829 13.57c-.38.436-.93.686-1.508.686z" fill="#fa759e"/><path d="m33.89 84.087h-26c-1.105 0-2 .895-2 2v25.827c0 1.105.895 2 2 2h26z" fill="#0089ef"/><g fill="#3a2c60"><path d="m52.515 38.914c-.552 0-1 .448-1 1s.448 1 1 1h9.486c.552 0 1-.448 1-1s-.448-1-1-1z"/><path d="m7.89 40.914h40.625c.552 0 1-.448 1-1s-.448-1-1-1h-13.625v-27.827h69.64c.289 0 .563.125.753.343l11.829 13.57-11.83 13.571c-.19.218-.464.343-.753.343h-38.264c-.553 0-1 .448-1 1s.447 1 1 1h38.265c.867 0 1.691-.375 2.261-1.029l11.83-13.57c.653-.75.653-1.879 0-2.628l-11.83-13.571c-.57-.653-1.395-1.028-2.261-1.028h-96.64c-1.654 0-3 1.346-3 3v25.827c0 1.653 1.345 2.999 3 2.999zm-1-28.827c0-.551.449-1 1-1h25v27.827h-25c-.551 0-1-.449-1-1z"/><path d="m106.79 47.115c-.57-.653-1.395-1.028-2.261-1.028h-96.639c-1.654 0-3 1.346-3 3v25.827c0 1.654 1.346 3 3 3h96.64c.867 0 1.691-.375 2.261-1.029l11.83-13.57c.653-.75.653-1.879 0-2.628zm-99.9 27.799v-25.827c0-.551.449-1 1-1h25v27.827h-25c-.552 0-1-.449-1-1zm98.392.657c-.19.218-.464.343-.753.343h-69.639v-27.827h69.64c.289 0 .563.125.753.343l11.829 13.57z"/><path d="m106.79 84.115c-.57-.653-1.395-1.028-2.261-1.028h-96.639c-1.654 0-3 1.346-3 3v25.827c0 1.654 1.346 3 3 3h96.64c.867 0 1.691-.375 2.261-1.029l11.83-13.57c.653-.75.653-1.879 0-2.628zm-99.9 27.799v-25.827c0-.551.449-1 1-1h25v27.827h-25c-.552 0-1-.449-1-1zm98.392.657c-.19.218-.464.343-.753.343h-69.639v-27.827h69.64c.289 0 .563.125.753.343l11.829 13.57z"/></g><g><path d="m24.32 100.273c.469.623.703 1.383.703 2.278 0 .854-.22 1.596-.661 2.226s-1.075 1.117-1.901 1.459c-.826.343-1.785.515-2.877.515-.91 0-1.782-.133-2.614-.399-.833-.266-1.551-.637-2.153-1.113-.21-.154-.36-.322-.451-.504s-.137-.392-.137-.63c0-.364.105-.675.315-.935.21-.259.462-.388.756-.388.168 0 .322.024.462.073s.315.137.525.263c.616.35 1.148.616 1.596.798s.973.273 1.575.273c.854 0 1.477-.157 1.869-.473.392-.315.588-.808.588-1.48 0-.658-.203-1.134-.609-1.428s-1.057-.441-1.953-.441h-1.239c-.364 0-.651-.126-.861-.378s-.315-.553-.315-.903c0-.336.105-.63.315-.882s.497-.378.861-.378h.882c.854 0 1.487-.147 1.9-.441s.62-.749.62-1.365c0-.588-.175-1.046-.525-1.375s-.84-.494-1.47-.494c-.518 0-1.001.091-1.449.273s-.966.448-1.554.798c-.21.126-.385.213-.525.262s-.294.074-.462.074c-.294 0-.546-.129-.756-.389-.21-.259-.315-.57-.315-.935 0-.252.045-.465.137-.64.091-.175.241-.339.452-.494.588-.476 1.292-.847 2.11-1.113.819-.266 1.655-.399 2.509-.399.994 0 1.869.165 2.625.494s1.337.795 1.743 1.396c.406.602.609 1.302.609 2.1s-.207 1.495-.62 2.089c-.413.595-.983 1.026-1.711 1.292.868.253 1.536.691 2.006 1.314z" fill="#fff"/></g></g></g></g></svg>