<svg id="bold" enable-background="new 0 0 24 24" height="512" viewBox="0 0 24 24" width="512" xmlns="http://www.w3.org/2000/svg"><path d="m17.5 11c-3.584 0-6.5 2.916-6.5 6.5s2.916 6.5 6.5 6.5 6.5-2.916 6.5-6.5-2.916-6.5-6.5-6.5zm4.304 4h-1.804v-1.804c.749.436 1.368 1.055 1.804 1.804zm.595 3.5h-2.399v-2h2.399c.131.641.139 1.32 0 2zm-9.798-2h2.399v2h-2.399c-.131-.641-.139-1.32 0-2zm3.899 0h2v2h-2zm2-3.899v2.399h-2v-2.399c.641-.131 1.32-.139 2 0zm-3.5.595v1.804h-1.804c.436-.749 1.055-1.368 1.804-1.804zm-1.804 6.804h1.804v1.804c-.749-.436-1.368-1.055-1.804-1.804zm3.304 2.399v-2.399h2v2.399c-.641.131-1.32.139-2 0zm3.5-.595v-1.804h1.804c-.436.749-1.055 1.368-1.804 1.804z"/><path d="m19 0h-16c-1.657 0-3 1.343-3 3s1.343 3 3 3h16c1.657 0 3-1.343 3-3s-1.343-3-3-3zm-16 4c-.552 0-1-.448-1-1s.448-1 1-1 1 .448 1 1-.448 1-1 1zm4 0c-.552 0-1-.448-1-1s.448-1 1-1 1 .448 1 1-.448 1-1 1z"/><path d="m19 8h-16c-1.66 0-3 1.34-3 3s1.34 3 3 3h6.76c1.33-2.95 4.3-5 7.74-5 1.6 0 3.11.45 4.39 1.23-.33-1.29-1.5-2.23-2.89-2.23zm-16 4c-.55 0-1-.45-1-1s.45-1 1-1 1 .45 1 1-.45 1-1 1zm4 0c-.55 0-1-.45-1-1s.45-1 1-1 1 .45 1 1-.45 1-1 1z"/><path d="m9 17.5c0-.51.05-1.01.14-1.5h-6.14c-1.66 0-3 1.34-3 3s1.34 3 3 3h7.29c-.82-1.3-1.29-2.85-1.29-4.5zm-6 2.5c-.55 0-1-.45-1-1s.45-1 1-1 1 .45 1 1-.45 1-1 1zm4 0c-.55 0-1-.45-1-1s.45-1 1-1 1 .45 1 1-.45 1-1 1z"/></svg>